<svg xmlns="http://www.w3.org/2000/svg" xmlns:xlink="http://www.w3.org/1999/xlink" width="111" height="71" viewBox="0 0 111 71"><defs><path id="j6rha" d="M766.2 2941.5l28.4 28.4a9.32 9.32 0 0 1 2.26 9.6l-.06.18 10.1 10.1-1.89 1.9-11.27-11.28.58-1.75c.8-2.42.19-5.05-1.62-6.85l-28.4-28.4a2.68 2.68 0 0 0-3.78 3.79l.95.94 10.4 10.42-1.88 1.9-10.42-10.42-.94-.95-4.74-4.73a2.68 2.68 0 0 0-3.78 3.78l.94.95 15.15 15.15-1.9 1.89-15.14-15.15-.95-.94-1.89-1.9a2.68 2.68 0 0 0-3.79 3.8l1.9 1.88 16.09 16.1-1.9 1.89-16.09-16.1a2.67 2.67 0 1 0-4.47 2.58l1.63-1.63 5.68 5.68-1.89 1.9 19.88 19.88-2.29 2.28h-4.9l-5.59-5.6a3.35 3.35 0 0 0-4.73 4.74l8.75 8.75 13.35 3.92c1.31.4 2.7.37 4-.07l4.08-1.36 11.94 11.95-1.9 1.9-10.77-10.78-2.5.83c-1.83.61-3.76.64-5.61.1l-14-4.12-9.24-9.23a6.03 6.03 0 0 1 8.52-8.52l4.82 4.81h1.9l-17.6-17.59-6.06 6.05c1.3 2.2 2.03 4.64 2.19 7.12l.08.08-.08.08c.24 4.4-1.3 8.88-4.65 12.23l-12.3 12.3a6.7 6.7 0 0 1-9.47 0l-13.26-13.25a6.7 6.7 0 0 1 0-9.46l12.3-12.31a16.01 16.01 0 0 1 12.24-4.66l.08-.07.08.08c2.47.16 4.91.89 7.11 2.18l6.2-6.18a5.35 5.35 0 0 1 3.57-7.96c-.95-2-.63-4.46 1.02-6.1a5.35 5.35 0 0 1 6.1-1.03 5.36 5.36 0 0 1 9.04-2.77l1.48 1.48a5.3 5.3 0 0 1 8.94-2.42zm-31.26 40.74l-.93.92a4.02 4.02 0 0 1-5.68 0l-9.46-9.47a4.02 4.02 0 0 1 0-5.68l.92-.92a13.3 13.3 0 0 0-7.55 3.76l-12.3 12.3a4.02 4.02 0 0 0 0 5.69l13.25 13.25a4.02 4.02 0 0 0 5.68 0l12.3-12.3a13.3 13.3 0 0 0 3.77-7.55zm-3.77-11.39a13.3 13.3 0 0 0-7.59-3.77l-2.82 2.83a1.34 1.34 0 0 0 0 1.89l9.47 9.47c.52.52 1.37.52 1.9 0l2.81-2.83a13.3 13.3 0 0 0-3.77-7.59zm8.52-10.4l-7.62 7.61a15.8 15.8 0 0 1 1.9 1.9l7.62-7.63zm29.32 17.59c4.65 0 9.02 1.8 12.3 5.1l3.82 3.8-1.9 1.9-3.8-3.82a14.64 14.64 0 0 0-10.42-4.3h-4.7v-2.69zm-68.13 7.96l13.26-13.25 15.14 15.14-13.25 13.26zm15.15 11.36l9.46-9.47-11.35-11.36-9.47 9.47zm-1.9-5.68l1.9-1.9 1.9 1.9-1.9 1.9zm3.8-3.79l1.89-1.89 1.89 1.9-1.9 1.89z"/></defs><g><g transform="translate(-696 -2940)"><use fill="#ededed" xlink:href="#j6rha"/></g></g></svg>