<svg xmlns="http://www.w3.org/2000/svg" xmlns:xlink="http://www.w3.org/1999/xlink" width="48" height="50" viewBox="0 0 48 50"><defs><path id="e3oza" d="M733.4 2834.76c.6.34.81 1.1.46 1.7l-4.99 8.65c-.27.47-.8.7-1.33.6l-3.78-.77 9.83 10.16c.39.4.46 1.01.19 1.5l-.02.03c-.3.48-.9.7-1.44.53l-18.1-5.7 5.81 7.4c.32.4.36.95.1 1.4l-5 8.64a1.25 1.25 0 1 1-2.16-1.25l4.57-7.91-7.79-9.91a1.25 1.25 0 0 1 1.36-1.96l17.26 5.43-9.21-9.53c-.39-.4-.47-.99-.2-1.47.2-.5.8-.73 1.34-.62l6.86 1.4 4.54-7.87c.35-.6 1.11-.8 1.7-.45zm5.53-3.28l7.53 28.12-27.29 7.3 1.77-3.05 22.46-6.02-6.88-25.7a12.5 12.5 0 0 0-22.88-3.02 12.36 12.36 0 0 0-1.38 8.63l.56 2.43-2.39.73a12.36 12.36 0 0 0-8.02 14.99 12.45 12.45 0 0 0 9.34 8.9l-1.3 2.24a14.92 14.92 0 0 1-8.96-21.87c1.8-3.1 4.73-5.52 8.37-6.7a14.91 14.91 0 0 1 10.72-17.58c8-2.14 16.2 2.6 18.35 10.6z"/></defs><g><g transform="translate(-699 -2820)"><use fill="#ededed" xlink:href="#e3oza"/></g></g></svg>