<svg xmlns="http://www.w3.org/2000/svg" xmlns:xlink="http://www.w3.org/1999/xlink" width="27" height="27" viewBox="0 0 27 27"><defs><path id="2nb6a" d="M1033.89 69.93l-.02.01a.53.53 0 0 1-.59-.88h.02a.53.53 0 1 1 .59.87zm-12.17-18l-.02.01a.53.53 0 0 1-.6-.87l.02-.01c.24-.16.57-.1.74.14.16.24.1.57-.14.73zm18.25 13.74a13.42 13.42 0 0 1-2.56 4l1.61 1.6a.53.53 0 0 1-.74.75l-1.98-1.97-3.76-3.77a3.29 3.29 0 0 1-1.24 1.65c-.88.62-2.13.93-3.8.93-2.37 0-3.96-.65-4.73-1.92-1.33-2.18.01-5.64 1.58-8.84l-4.52-4.53a10.33 10.33 0 0 0 12.24 16.2.53.53 0 1 1 .46.95 11.42 11.42 0 0 1-14.73-4.25 11.32 11.32 0 0 1 1.28-13.64l-.74-.75a12.46 12.46 0 0 0 16.46 18.5.53.53 0 0 1 .62.86 13.42 13.42 0 0 1-7.92 2.56c-3.6 0-7-1.4-9.55-3.95a13.41 13.41 0 0 1-2.92-14.72 13.42 13.42 0 0 1 2.56-4l-1.61-1.6a.53.53 0 0 1 .74-.75l1.98 1.97 6.15 6.15.55-1.07a20.52 20.52 0 0 0 1.59-3.48.53.53 0 0 1 1.02 0c.18.74.83 2 1.59 3.48a49.26 49.26 0 0 1 2.3 4.9.53.53 0 0 1-.98.38 48.34 48.34 0 0 0-2.26-4.8c-.44-.86-.85-1.65-1.16-2.33-.3.68-.72 1.47-1.16 2.33-.23.44-.47.9-.7 1.38l9.53 9.53a10.33 10.33 0 0 0-12.24-16.2.53.53 0 1 1-.46-.94 11.42 11.42 0 0 1 14.73 4.25 11.32 11.32 0 0 1-1.28 13.64l.74.75a12.46 12.46 0 0 0-16.46-18.5.53.53 0 0 1-.62-.86 13.42 13.42 0 0 1 7.92-2.56c3.6 0 7 1.4 9.55 3.95a13.41 13.41 0 0 1 2.92 14.72zm-8.3-.25l-6.53-6.53c-1.34 2.8-2.49 5.84-1.47 7.5.57.94 1.86 1.41 3.83 1.41 1.43 0 2.5-.25 3.2-.73.54-.39.86-.93.97-1.65zm.47-2.22a.53.53 0 0 1-.69-.28l-.02-.04a.53.53 0 0 1 .98-.4l.01.03a.53.53 0 0 1-.28.7zm-3.93 3.02c0 .3-.23.53-.52.53-.3 0-.87-.02-1.43-.12-.8-.14-1.3-.41-1.53-.82-.23-.42-.28-1.02-.14-1.83a.53.53 0 0 1 1.04.18c-.13.75-.03 1.04.02 1.13.03.05.23.2.8.3.5.1 1.03.1 1.24.1.29 0 .52.24.52.53z"/></defs><g><g transform="translate(-1014 -47)"><use fill="#fff" xlink:href="#2nb6a"/></g></g></svg>