<?xml version="1.0" encoding="utf-8"?>
<!-- Generator: Adobe Illustrator 24.1.1, SVG Export Plug-In . SVG Version: 6.00 Build 0)  -->
<svg version="1.1" id="Layer_1" xmlns="http://www.w3.org/2000/svg" xmlns:xlink="http://www.w3.org/1999/xlink" x="0px" y="0px"
	 viewBox="0 0 208.3 208.3" style="enable-background:new 0 0 208.3 208.3;" xml:space="preserve">
<style type="text/css">
	.st0{fill:#87253B;}
	.st1{fill:#FFFFFF;}
</style>
<path class="st0" d="M208.5,104.1C208.5,46.9,161.7,0,104.4,0S0.3,46.9,0.3,104.1s46.9,104.1,104.1,104.1S208.5,161.4,208.5,104.1"
	/>
<path class="st1" d="M96.6,157c-2.6,0-5.4-1.7-7.2-3.4L55,119.2c-3.9-3.9-3.6-10.5,1-13.6c3.4-2.3,7.8-1.9,10.8,1.1l26.7,26.7
	c0.1,0.1,0.2,0.1,0.3,0l45.9-77c2.6-4.3,7.8-5.2,12.1-2.6c4.3,2.6,5.2,7.8,2.6,12.1l-52.1,86.8C100.7,155.3,99,156.2,96.6,157"/>
</svg>
