<?xml version="1.0" encoding="utf-8"?>
<!-- Generator: Adobe Illustrator 22.0.1, SVG Export Plug-In . SVG Version: 6.00 Build 0)  -->
<svg version="1.1" id="Слой_1" xmlns="http://www.w3.org/2000/svg" xmlns:xlink="http://www.w3.org/1999/xlink" x="0px" y="0px"
	 viewBox="0 0 52.5 53.6" style="enable-background:new 0 0 52.5 53.6;" xml:space="preserve">
<style type="text/css">
	.st0{fill:#BC4863;}
	.st1{fill:url(#d3osa_2_);}
</style>
<g>
	<g transform="translate(-1688 -180)">
		<g>
			<path id="d3osa" class="st0" d="M1739.9,209.7l-0.8-1.1c-0.9-1.2-0.9-2.8,0-4.1l0.8-1.1c1.2-1.7,0.7-4.1-1.2-5.1l-1.2-0.6
				c-1.3-0.7-2-2.2-1.8-3.6l0.2-1.4c0.3-1.9-1-3.7-2.9-4c-0.1,0-0.3,0-0.4,0l-1.4-0.1c-1.5-0.1-2.8-1.1-3.2-2.5l-0.4-1.3
				c-0.5-1.8-2.5-2.9-4.3-2.4c-0.1,0-0.3,0.1-0.4,0.2l-1.3,0.5c-1.4,0.6-3,0.2-4-0.9l-0.9-1c-1.3-1.4-3.5-1.5-4.9-0.3
				c-0.1,0.1-0.2,0.2-0.3,0.3l-0.9,1c-1,1.1-2.6,1.5-4,0.9l-1.3-0.5c-1.8-0.7-3.8,0.1-4.6,1.9c-0.1,0.1-0.1,0.3-0.1,0.4l-0.4,1.3
				c-0.4,1.4-1.7,2.5-3.2,2.6l-1.4,0.1c-1.9,0.1-3.4,1.8-3.3,3.7c0,0.1,0,0.3,0.1,0.4l0.3,1.4c0.3,1.5-0.4,3-1.7,3.7l-1.2,0.7
				c-1.7,0.9-2.3,3.1-1.4,4.7c0.1,0.1,0.1,0.3,0.2,0.4l0.8,1.1c0.9,1.2,0.9,2.8,0,4.1l-0.8,1.1c-1.1,1.6-0.7,3.8,0.8,4.9
				c0.1,0.1,0.2,0.2,0.4,0.2l1.2,0.6c1.3,0.7,2,2.2,1.8,3.6l-0.2,1.4c-0.3,1.9,1,3.7,2.9,4c0.1,0,0.3,0,0.4,0l1.4,0.1
				c1.5,0.1,2.8,1.1,3.2,2.5l0.4,1.3c0.5,1.9,2.5,2.9,4.3,2.4c0.1,0,0.3-0.1,0.4-0.1l1.3-0.5c1.4-0.6,3-0.2,4,0.9l0.9,1
				c1.3,1.4,3.5,1.6,4.9,0.3c0.1-0.1,0.2-0.2,0.3-0.3l0.9-1c1-1.1,2.6-1.5,4-0.9l1.3,0.5c1.8,0.7,3.8-0.1,4.6-1.9
				c0.1-0.1,0.1-0.3,0.1-0.4l0.4-1.3c0.4-1.4,1.7-2.5,3.2-2.6l1.4-0.1c1.9-0.1,3.4-1.8,3.3-3.7c0-0.1,0-0.3-0.1-0.4l-0.3-1.4
				c-0.3-1.5,0.4-2.9,1.7-3.7l1.2-0.7c1.7-0.9,2.3-3.1,1.4-4.7C1740,210,1739.9,209.9,1739.9,209.7L1739.9,209.7z"/>
		</g>
		<g>
			
				<linearGradient id="d3osa_2_" gradientUnits="userSpaceOnUse" x1="3428.9932" y1="26.5684" x2="3375.9932" y2="26.9984" gradientTransform="matrix(1 0 0 -1 -1688 233.5667)">
				<stop  offset="0" style="stop-color:#A5CC8D"/>
				<stop  offset="0.53" style="stop-color:#C9C9DA"/>
				<stop  offset="1" style="stop-color:#F0AD8A"/>
			</linearGradient>
			<path id="d3osa_1_" class="st1" d="M1739.9,209.7l-0.8-1.1c-0.9-1.2-0.9-2.8,0-4.1l0.8-1.1c1.2-1.7,0.7-4.1-1.2-5.1l-1.2-0.6
				c-1.3-0.7-2-2.2-1.8-3.6l0.2-1.4c0.3-1.9-1-3.7-2.9-4c-0.1,0-0.3,0-0.4,0l-1.4-0.1c-1.5-0.1-2.8-1.1-3.2-2.5l-0.4-1.3
				c-0.5-1.8-2.5-2.9-4.3-2.4c-0.1,0-0.3,0.1-0.4,0.2l-1.3,0.5c-1.4,0.6-3,0.2-4-0.9l-0.9-1c-1.3-1.4-3.5-1.5-4.9-0.3
				c-0.1,0.1-0.2,0.2-0.3,0.3l-0.9,1c-1,1.1-2.6,1.5-4,0.9l-1.3-0.5c-1.8-0.7-3.8,0.1-4.6,1.9c-0.1,0.1-0.1,0.3-0.1,0.4l-0.4,1.3
				c-0.4,1.4-1.7,2.5-3.2,2.6l-1.4,0.1c-1.9,0.1-3.4,1.8-3.3,3.7c0,0.1,0,0.3,0.1,0.4l0.3,1.4c0.3,1.5-0.4,3-1.7,3.7l-1.2,0.7
				c-1.7,0.9-2.3,3.1-1.4,4.7c0.1,0.1,0.1,0.3,0.2,0.4l0.8,1.1c0.9,1.2,0.9,2.8,0,4.1l-0.8,1.1c-1.1,1.6-0.7,3.8,0.8,4.9
				c0.1,0.1,0.2,0.2,0.4,0.2l1.2,0.6c1.3,0.7,2,2.2,1.8,3.6l-0.2,1.4c-0.3,1.9,1,3.7,2.9,4c0.1,0,0.3,0,0.4,0l1.4,0.1
				c1.5,0.1,2.8,1.1,3.2,2.5l0.4,1.3c0.5,1.9,2.5,2.9,4.3,2.4c0.1,0,0.3-0.1,0.4-0.1l1.3-0.5c1.4-0.6,3-0.2,4,0.9l0.9,1
				c1.3,1.4,3.5,1.6,4.9,0.3c0.1-0.1,0.2-0.2,0.3-0.3l0.9-1c1-1.1,2.6-1.5,4-0.9l1.3,0.5c1.8,0.7,3.8-0.1,4.6-1.9
				c0.1-0.1,0.1-0.3,0.1-0.4l0.4-1.3c0.4-1.4,1.7-2.5,3.2-2.6l1.4-0.1c1.9-0.1,3.4-1.8,3.3-3.7c0-0.1,0-0.3-0.1-0.4l-0.3-1.4
				c-0.3-1.5,0.4-2.9,1.7-3.7l1.2-0.7c1.7-0.9,2.3-3.1,1.4-4.7C1740,210,1739.9,209.9,1739.9,209.7L1739.9,209.7z"/>
		</g>
	</g>
</g>
</svg>
