<svg xmlns="http://www.w3.org/2000/svg" xmlns:xlink="http://www.w3.org/1999/xlink" width="19" height="23" viewBox="0 0 19 23"><defs><path id="a0wya" d="M1638.17 360.94c-1.78-2.07-1.49-5.61-1.46-5.95.12-2.56 1.3-3.77 2.27-4.34a5.05 5.05 0 0 1 2.49-.65h.08c.93.02 1.77.25 2.49.67.96.57 2.12 1.78 2.24 4.32.03.34.32 3.88-1.45 5.95-.81.94-1.9 1.43-3.26 1.45h-.05-.1a4.2 4.2 0 0 1-3.25-1.45zm.92-.86a2.97 2.97 0 0 0 2.38 1.02h.05c1.02 0 1.8-.34 2.38-1.02 1.47-1.7 1.14-4.94 1.14-4.97v-.04c-.15-3.23-2.27-3.76-3.52-3.78h-.05c-1.01 0-3.36.37-3.52 3.78v.04c0 .02-.32 3.28 1.14 4.97zm11.68 10.34a.63.63 0 0 1-.24.3c-.14.1-3.46 2.28-9.02 2.28s-8.89-2.18-9.02-2.28a.6.6 0 0 1-.24-.3 7.53 7.53 0 0 1-.24-2.16v-.01-.12c.03-.94.1-3.14 2.1-3.85l.04-.02c2.1-.55 3.82-1.78 3.84-1.8.28-.2.67-.13.87.16.2.3.13.7-.15.9-.08.05-1.92 1.37-4.22 1.98-1.08.4-1.2 1.58-1.23 2.67v.12c-.02.42.02 1.09.09 1.47.75.44 3.7 1.96 8.15 1.96 4.47 0 7.4-1.52 8.15-1.96.07-.38.1-1.04.1-1.47v-.12c-.04-1.08-.16-2.27-1.24-2.67a14.19 14.19 0 0 1-4.22-1.98.65.65 0 0 1-.15-.9c.2-.29.59-.36.87-.15.02.01 1.75 1.25 3.84 1.8l.04.01c2 .7 2.07 2.91 2.1 3.85V368.27c0 .25.01 1.52-.22 2.15z"/></defs><g><g transform="translate(-1632 -350)"><use fill="#bfadac" xlink:href="#a0wya"/></g></g></svg>