<svg xmlns="http://www.w3.org/2000/svg" width="22" height="19" viewBox="0 0 22 19">
  <metadata><?xpacket begin="﻿" id="W5M0MpCehiHzreSzNTczkc9d"?>
<x:xmpmeta xmlns:x="adobe:ns:meta/" x:xmptk="Adobe XMP Core 5.6-c138 79.159824, 2016/09/14-01:09:01        ">
   <rdf:RDF xmlns:rdf="../../external.html?link=http://www.w3.org/1999/02/22-rdf-syntax-ns#">
      <rdf:Description rdf:about=""/>
   </rdf:RDF>
</x:xmpmeta>
                                                                                                    
                                                                                                    
                                                                                                    
                                                                                                    
                                                                                                    
                                                                                                    
                                                                                                    
                                                                                                    
                                                                                                    
                                                                                                    
                                                                                                    
                                                                                                    
                                                                                                    
                                                                                                    
                                                                                                    
                                                                                                    
                                                                                                    
                                                                                                    
                                                                                                    
                                                                                                    
                           
<?xpacket end="w"?></metadata>
<defs>
    <style>
      .cls-1 {
        fill: #f39167;
        fill-rule: evenodd;
      }
    </style>
  </defs>
  <path id="Forma_1" data-name="Forma 1" class="cls-1" d="M1647,658.333c-0.04-.6-0.79-1.073-2.28-1.432a0.763,0.763,0,0,0,.08-0.329V654.11h-0.01c-0.13-2.05-8.88-2.111-9.89-2.111s-9.76.061-9.89,2.111H1625v0.046h0v2.417c0,0.668.9,1.191,2.24,1.58a0.557,0.557,0,0,0-.03.18h-0.01v0.045h0v2.413c-1.44.356-2.16,0.82-2.2,1.412h0v0.046h0v2.416a1.579,1.579,0,0,0,1.15,1.19,0.814,0.814,0,0,0-.04.219h-0.01v0.045h0v2.417c0,1.17,2.75,1.9,5.8,2.236a0.292,0.292,0,0,0,.07.013l0.02,0c0.58,0.063,1.18.113,1.77,0.149,0.02,0,.03.007,0.04,0.007s0.01,0,.02,0c0.75,0.043,1.49.065,2.18,0.065s1.43-.022,2.18-0.066a0.142,0.142,0,0,0,.02,0c0.01,0,.02-0.006.04-0.007,0.59-.036,1.19-0.086,1.77-0.149a0.08,0.08,0,0,1,.02,0,0.25,0.25,0,0,0,.07-0.013c3.05-.339,5.8-1.066,5.8-2.236v-2.462h-0.01a1.465,1.465,0,0,0-1.16-1.092,0.868,0.868,0,0,0,.07-0.316v-2.3c1.32-.388,2.2-0.907,2.2-1.571v-2.46h0Zm-2.97,6.446-0.13.105a3.263,3.263,0,0,1-.93.485v-1.677a5.952,5.952,0,0,0,1.1-.484v1.456A0.283,0.283,0,0,1,1644.03,664.779Zm-8.2,1.635-0.17,0-0.39,0v-1.757l0.3,0,0.06,0c0.37-.006.74-0.017,1.1-0.033v1.756l-0.23.011C1636.28,666.4,1636.05,666.408,1635.83,666.414Zm-1.61,0c-0.16,0-.33-0.006-0.5-0.011l-0.06,0c-0.2-.006-0.4-0.014-0.59-0.024v-1.756c0.36,0.016.73,0.028,1.1,0.034h0.06l0.3,0v1.759l-0.21,0Zm-6.62-.8-0.03-.01v-1.7c0.34,0.089.71,0.17,1.1,0.244v1.717c-0.34-.068-0.65-0.14-0.93-0.214Zm7.73,2.913,0.3,0v1.759c-0.5,0-.99-0.018-1.46-0.041V668.5c0.36,0.016.73,0.027,1.1,0.033h0.06Zm1.4,0c0.37-.007.74-0.017,1.1-0.033v1.756c-0.47.022-.96,0.036-1.46,0.041v-1.759l0.3,0h0.06Zm2.94-.16v1.748c-0.36.036-.72,0.068-1.1,0.093v-1.755C1638.94,668.432,1639.31,668.4,1639.67,668.369Zm0.73-.075c0.38-.044.74-0.094,1.1-0.149v1.728c-0.35.058-.71,0.112-1.1,0.161v-1.74Zm1.83-.274c0.39-.074.76-0.155,1.1-0.243v1.7c-0.32.09-.69,0.177-1.1,0.261V668.02Zm-12.46,0v1.718c-0.41-.084-0.78-0.171-1.1-0.261v-1.7C1629.01,667.865,1629.38,667.946,1629.77,668.02Zm0.73,0.126c0.35,0.055.72,0.105,1.1,0.148v1.741c-0.39-.049-0.75-0.1-1.1-0.162v-1.727Zm1.83,0.223c0.36,0.034.73,0.063,1.1,0.087v1.755c-0.38-.026-0.74-0.058-1.1-0.094v-1.748Zm-0.91-2.1-0.11-.011-0.08-.008V664.5c0.36,0.033.73,0.061,1.1,0.086v1.753C1632.03,666.318,1631.72,666.294,1631.42,666.266Zm-0.92-1.842v1.74c-0.39-.049-0.75-0.1-1.1-0.161v-1.728C1629.75,664.33,1630.12,664.381,1630.5,664.424Zm7.21,1.9-0.24.018v-1.755c0.37-.024.74-0.052,1.1-0.085v1.747c-0.23.023-.46,0.044-0.7,0.063Zm1.59-.158v-1.74c0.38-.044.75-0.094,1.1-0.149V666C1640.05,666.061,1639.69,666.116,1639.3,666.164Zm1.83-2.014c0.39-.074.76-0.155,1.1-0.244v1.7c-0.32.091-.69,0.178-1.1,0.261V664.15Zm-5.01-1.608c-0.28-.006-0.55-0.017-0.81-0.028l-0.04,0v-1.756c0.36,0.016.73,0.027,1.1,0.033h0.06l0.3,0v1.758c-0.18,0-.36,0-0.53-0.007Zm-8.55-5.028v-1.7c0.34,0.088.71,0.17,1.1,0.243v1.718l-0.14-.028q-0.285-.061-0.57-0.129C1627.83,657.584,1627.69,657.549,1627.57,657.514Zm6.66-.947,0.3,0v1.757c-0.49,0-.98-0.017-1.46-0.04v-1.755c0.36,0.017.73,0.027,1.1,0.033h0.06Zm1.4,0c0.37-.007.74-0.018,1.1-0.033v1.755l-0.18.01h-0.02q-0.36.015-.75,0.023l-0.12,0c-0.13,0-.26,0-0.39,0v-1.757l0.3,0h0.06Zm8.35,0.176h-0.01l-0.13.1a3.527,3.527,0,0,1-.87.432V655.6a5.884,5.884,0,0,0,1.1-.485v1.456A0.255,0.255,0,0,1,1643.98,656.742Zm-4.68,1.327v-1.738c0.38-.044.75-0.093,1.1-0.149v1.725C1640.05,657.966,1639.69,658.021,1639.3,658.069Zm1.83-.3v-1.715c0.39-.073.76-0.155,1.1-0.243v1.7C1641.9,657.6,1641.53,657.689,1641.13,657.772Zm-2.56-1.365v1.745c-0.36.036-.72,0.067-1.1,0.093v-1.752C1637.84,656.469,1638.21,656.44,1638.57,656.407Zm-7.34,1.746v-1.746c0.36,0.033.73,0.062,1.1,0.086v1.751C1631.96,658.219,1631.59,658.189,1631.23,658.153Zm-0.73-1.822v1.739c-0.07-.009-0.15-0.017-0.22-0.027l-0.14-.019c-0.21-.029-0.42-0.06-0.62-0.093l-0.12-.021v-1.727C1629.75,656.238,1630.12,656.288,1630.5,656.331Zm3.94,6.132-0.15-.011c-0.23-.018-0.46-0.037-0.68-0.058l-0.15-.014-0.03,0V660.63c0.36,0.033.73,0.061,1.1,0.085v1.753Zm-2.42-.263c-0.15-.022-0.28-0.046-0.42-0.069v-1.726c0.35,0.055.72,0.105,1.1,0.149v1.74c-0.22-.029-0.44-0.058-0.66-0.089A0.03,0.03,0,0,0,1632.02,662.2Zm-1.15-1.921v1.715c-0.41-.083-0.78-0.172-1.1-0.265v-1.693C1630.11,660.124,1630.48,660.206,1630.87,660.279Zm-1.84-.458v1.672a2.393,2.393,0,0,1-1.07-.627l-0.02-.039c0-.01-0.01-0.022-0.01-0.034v-1.456A5.886,5.886,0,0,0,1629.03,659.821Zm8.8,0.967c0.37-.006.74-0.017,1.1-0.033v1.755c-0.48.022-.97,0.035-1.46,0.04v-1.757l0.3,0h0.06Zm4.74,1.351c-0.17.026-.33,0.053-0.49,0.077l-0.3.041-0.28.035v-1.739c0.38-.043.75-0.093,1.1-0.148v1.727Zm-2.49.3c-0.13.012-.27,0.019-0.41,0.029v-1.752c0.37-.024.74-0.052,1.1-0.085v1.745c-0.22.022-.43,0.043-0.65,0.06A0.19,0.19,0,0,1,1640.08,662.438Zm4.19-.659c-0.18.049-.37,0.094-0.57,0.139-0.09.02-.18,0.042-0.28,0.061l-0.09.017v-1.717c0.39-.073.76-0.154,1.1-0.243v1.7C1644.38,661.75,1644.33,661.765,1644.27,661.779Zm1.99-3.424c-0.03.239-.6,0.557-1.6,0.855h0a25.58,25.58,0,0,1-5.9.847l-0.4.015-0.33.009c-0.3.006-.61,0.01-0.93,0.01s-0.63,0-.93-0.011l-0.33-.01c-0.14,0-.27-0.008-0.4-0.014a25.59,25.59,0,0,1-5.9-.846h0a2.479,2.479,0,0,1-1.6-.849V658.34c0.03,0.006.06,0.011,0.08,0.017,0.15,0.033.29,0.064,0.44,0.1,0.73,0.15,1.54.274,2.4,0.368h0.01c0.58,0.064,1.19.114,1.82,0.15l0.01,0s0,0,.01,0c0.45,0.025.9,0.044,1.36,0.054,0.28,0.007.56,0.01,0.83,0.01,0.19,0,.39,0,0.59,0a29.259,29.259,0,0,0,6.85-.815c0.08-.021.16-0.043,0.23-0.066,0.05-.014.1-0.027,0.14-0.041,0.14-.041.26-0.082,0.39-0.126l0.06-.023,0.3-.117a0.641,0.641,0,0,1,.08-0.034c0.1-.044.2-0.089,0.29-0.136l0.12-.064c0.04-.024.08-0.048,0.12-0.074s0.05-.027.08-0.041C1645.79,657.836,1646.22,658.21,1646.26,658.355ZM1634.9,652.7c6.05,0,9.1.913,9.16,1.437a2.509,2.509,0,0,1-1.6.848h0a25.645,25.645,0,0,1-5.9.846l-0.4.015-0.33.009q-0.45.011-.93,0.011t-0.93-.011l-0.33-.009c-0.14,0-.27-0.01-0.4-0.015a25.645,25.645,0,0,1-5.9-.846h0a2.509,2.509,0,0,1-1.6-.848C1625.8,653.616,1628.85,652.7,1634.9,652.7Zm-9.17,3.869v-1.458a5.884,5.884,0,0,0,1.1.485v1.685A1.563,1.563,0,0,1,1625.73,656.572Zm1.78,4.869a0.031,0.031,0,0,0,.02.016,6.368,6.368,0,0,0,2.83,1.154l0.1,0.019,0.28,0.06a29.309,29.309,0,0,0,4.16.5h0c0.5,0.028,1.01.048,1.52,0.056,0.23,0,.46.007,0.68,0.007,0.25,0,.51,0,0.78-0.008q0.72-.015,1.41-0.055h0.01l0.01,0a29.529,29.529,0,0,0,4.23-.519,6.654,6.654,0,0,1-1.08.406h0a26.335,26.335,0,0,1-6.34.862l-0.25.007-0.27,0c-0.23,0-.46.007-0.7,0.007q-0.48,0-.93-0.011l-0.33-.009-0.4-.015a25.58,25.58,0,0,1-5.9-.847h0c-1.01-.3-1.57-0.616-1.6-0.855C1625.78,662.092,1626.15,661.761,1627.51,661.441Zm-1.78,3.224v-1.458a5.95,5.95,0,0,0,1.1.485v1.677l-0.21-.078v0A1.258,1.258,0,0,1,1625.73,664.665Zm1.1,3.87v-1.457a5.886,5.886,0,0,0,1.1.484v1.685A1.566,1.566,0,0,1,1626.83,668.535Zm17.24,0.712v-1.685a5.886,5.886,0,0,0,1.1-.484v1.456A1.566,1.566,0,0,1,1644.07,669.247Zm1.09-3.146a2.488,2.488,0,0,1-1.6.85h0a25.59,25.59,0,0,1-5.9.846l-0.4.016-0.33.008q-0.45.01-.93,0.011t-0.93-.011l-0.33-.01-0.4-.014a25.645,25.645,0,0,1-5.9-.846h0a2.685,2.685,0,0,1-1.6-.828c0.11,0.036.22,0.072,0.34,0.107a0.172,0.172,0,0,0,.04.009c0.1,0.03.2,0.058,0.3,0.085l0.12,0.032,0.18,0.044a27.619,27.619,0,0,0,4.88.665h0q0.855,0.049,1.74.059c0.15,0,.31,0,0.46,0,0.2,0,.41,0,0.62,0,0.53-.008,1.06-0.028,1.58-0.058h0c0.63-.036,1.24-0.088,1.83-0.152h0c0.01,0,.02,0,0.03,0,0.65-.073,1.27-0.161,1.84-0.264l0.35-.064c0.02-.006.05-0.01,0.07-0.016a10.206,10.206,0,0,0,2.67-.831c0.03-.019.07-0.038,0.1-0.056l0.12-.071c0.03-.023.07-0.043,0.1-0.066A1.477,1.477,0,0,1,1645.16,666.1Zm0.01-4.6v-1.684a5.95,5.95,0,0,0,1.1-.485v1.456A1.563,1.563,0,0,1,1645.17,661.506Z" transform="translate(-1625 -652)"/>
</svg>
