<svg xmlns="http://www.w3.org/2000/svg" width="25" height="23" viewBox="0 0 25 23">
  <metadata><?xpacket begin="﻿" id="W5M0MpCehiHzreSzNTczkc9d"?>
<x:xmpmeta xmlns:x="adobe:ns:meta/" x:xmptk="Adobe XMP Core 5.6-c138 79.159824, 2016/09/14-01:09:01        ">
   <rdf:RDF xmlns:rdf="../../external.html?link=http://www.w3.org/1999/02/22-rdf-syntax-ns#">
      <rdf:Description rdf:about=""/>
   </rdf:RDF>
</x:xmpmeta>
                                                                                                    
                                                                                                    
                                                                                                    
                                                                                                    
                                                                                                    
                                                                                                    
                                                                                                    
                                                                                                    
                                                                                                    
                                                                                                    
                                                                                                    
                                                                                                    
                                                                                                    
                                                                                                    
                                                                                                    
                                                                                                    
                                                                                                    
                                                                                                    
                                                                                                    
                                                                                                    
                           
<?xpacket end="w"?></metadata>
<defs>
    <style>
      .cls-1 {
        fill: #f39167;
        fill-rule: evenodd;
      }
    </style>
  </defs>
  <path id="Forma_1" data-name="Forma 1" class="cls-1" d="M1238.17,6806.61h5.41a0.42,0.42,0,1,0,0-.84h-5.41A0.42,0.42,0,0,0,1238.17,6806.61Zm10.83,1.67h-10.83a0.414,0.414,0,0,0-.42.41,0.423,0.423,0,0,0,.42.42H1249a0.423,0.423,0,0,0,.42-0.42A0.414,0.414,0,0,0,1249,6808.28Zm0,2.5h-10.83a0.42,0.42,0,0,0,0,.84H1249A0.42,0.42,0,0,0,1249,6810.78Zm7.53-13.75-14.23-.03a2.477,2.477,0,0,0-2.47,2.48v2.14h-3.36a2.477,2.477,0,0,0-2.47,2.48v8.83a2.484,2.484,0,0,0,2.47,2.48H1239v4.17a0.423,0.423,0,0,0,.27.39,0.391,0.391,0,0,0,.45-0.11l4.05-4.46,6.93-.02a2.477,2.477,0,0,0,2.47-2.48v-0.05l2.19,2.42a0.41,0.41,0,0,0,.31.14,0.4,0.4,0,0,0,.15-0.03,0.414,0.414,0,0,0,.26-0.39v-4.18h0.45a2.475,2.475,0,0,0,2.47-2.47v-8.84A2.475,2.475,0,0,0,1256.53,6797.03Zm-4.2,15.87a1.641,1.641,0,0,1-1.64,1.64l-7.11.03a0.41,0.41,0,0,0-.31.14l-3.44,3.79v-3.51a0.414,0.414,0,0,0-.41-0.42h-2.95a1.647,1.647,0,0,1-1.64-1.64v-8.83a1.641,1.641,0,0,1,1.64-1.64l3.78-.01h0l10.45-.02a1.632,1.632,0,0,1,1.63,1.64v8.83Zm5.84-4.57a1.65,1.65,0,0,1-1.64,1.65h-0.86a0.414,0.414,0,0,0-.42.41v3.52l-2.08-2.3v-7.54a2.48,2.48,0,0,0-2.48-2.48l-10.02.02v-2.13a1.641,1.641,0,0,1,1.63-1.65l14.23,0.03h0a1.647,1.647,0,0,1,1.64,1.64v8.83h0Z" transform="translate(-1234 -6797)"/>
</svg>
