<svg xmlns="http://www.w3.org/2000/svg" width="20" height="23" viewBox="0 0 20 23.812">
 
<defs>
    <style>
      .cls-1 {
        fill: #f39168;
        fill-rule: evenodd;
      }
    </style>
  </defs>
  <path class="cls-1" d="M1658.29,469.071a2.265,2.265,0,0,0-1.54-.98,2.3,2.3,0,0,0-1.74.561l-1.71,1.376c-0.11-.086-0.23-0.169-0.34-0.245a4.882,4.882,0,0,1-.45-0.33,17.233,17.233,0,0,1-3.52-4.241,10.486,10.486,0,0,1-1.05-2.288c0.44-.322.85-0.664,1.25-0.994,0.16-.121.31-0.251,0.46-0.373a2.36,2.36,0,0,0,.41-3.445l-1.16-1.53c-0.13-.172-0.26-0.351-0.39-0.529-0.25-.349-0.52-0.706-0.79-1.043a2.277,2.277,0,0,0-1.53-.94,2.309,2.309,0,0,0-1.72.524c-0.01.006-.01,0.006-0.01,0.01l-1.84,1.5a3.627,3.627,0,0,0-1.32,2.183,9.143,9.143,0,0,0,.17,3.779,22,22,0,0,0,2.93,6.827,23.349,23.349,0,0,0,6.82,7.077,11.717,11.717,0,0,0,4.09,1.833c0.1,0.016.2,0.036,0.3,0.048a3.58,3.58,0,0,0,2.93-.882,0.062,0.062,0,0,1,.02-0.025,11.934,11.934,0,0,1,.95-0.793c0.23-.177.47-0.363,0.7-0.562a2.507,2.507,0,0,0,.93-1.634,2.428,2.428,0,0,0-.54-1.8Zm1.1,5.469c-0.01,0-.01,0,0,0-0.22.183-.43,0.351-0.66,0.533a12.654,12.654,0,0,0-1.05.878,2.285,2.285,0,0,1-1.91.564l-0.22-.033a10.227,10.227,0,0,1-3.61-1.645,21.924,21.924,0,0,1-6.43-6.663,20.849,20.849,0,0,1-2.76-6.418,7.439,7.439,0,0,1-.17-3.19,2.329,2.329,0,0,1,.84-1.4l1.85-1.488a1.079,1.079,0,0,1,.77-0.264,1.032,1.032,0,0,1,.66.441,0.117,0.117,0,0,1,.02.019c0.26,0.318.5,0.648,0.76,1,0.13,0.179.26,0.359,0.4,0.544l1.15,1.524a0.975,0.975,0,0,1-.18,1.543c-0.16.131-.31,0.259-0.47,0.381-0.45.373-.89,0.726-1.35,1.062a0.1,0.1,0,0,0-.03.018,1.042,1.042,0,0,0-.38,1.1,0.076,0.076,0,0,0,.01.048,11.058,11.058,0,0,0,1.24,2.822v0a18.377,18.377,0,0,0,3.8,4.575,6.847,6.847,0,0,0,.56.409c0.16,0.111.31,0.217,0.44,0.323a0.417,0.417,0,0,1,.05.042,1.054,1.054,0,0,0,.47.186,0.989,0.989,0,0,0,.77-0.252l1.85-1.5a1.1,1.1,0,0,1,.77-0.285,1,1,0,0,1,.65.456c0.01,0,.01,0,0.01.008l2.33,3.087A1.02,1.02,0,0,1,1659.39,474.54Z" transform="translate(-1641.16 -454.063)"/>
</svg>
