<svg width="394" height="407" fill="none" xmlns="../../external.html?link=http://www.w3.org/2000/svg"><g opacity=".5"><path d="M114.372 4.791c20.962-1.261 41.718 4.961 61.442 12.235 17.702 6.433 36.436 15.347 55.335 18.459 1.815 0 3.879.588 5.694.588 22.159 2.102 44.565-6.601 66.517-8.409 24.429-2.144 52.901 5.298 62.639 28.129 6.52 15.683 1.444 32.922-8.542 45.578-11.389 14.295-24.387 16.398-40.686 21.023-31.319 9.124-67.301-1.85-96.392 15.557-16.506 9.923-26.863 27.96-42.13 39.986-24.759 19.677-60.204 21.023-89.914 10.553a101.422 101.422 0 01-26.203-13.665C-3.6 126.136 35.27 9.542 114.372 4.791z" fill="url(#paint0_linear)"/><path d="M114.208 183.024c23.149-5.592 41.882.841 64.66 1.472 22.097.67 43.959-4.779 63.257-15.767 27.276-15.137 61.649-27.33 89.708-7.022a45.89 45.89 0 0113.05 14.062 46.811 46.811 0 016.261 18.271 41.173 41.173 0 01-1.558 15.726 40.7 40.7 0 01-7.355 13.917c-11.223 13.455-31.608 15.977-46.009 25.48-14.701 9.529-26.527 23.02-34.166 38.977-8.253 17.407-12.792 36.243-19.312 54.281-6.519 18.038-15.267 35.992-29.709 48.605-17.496 15.305-52.282 22.159-70.562 4.541a47.348 47.348 0 01-11.182-17.154c-6.52-15.978-3.466-33.974-9.161-50.161-7.138-20.309-34.785-21.78-49.227-36.875-6.69-7.168-11.544-15.905-14.134-25.437a61.36 61.36 0 01-.721-29.223c6.313-26.741 29.75-47.512 56.16-53.693z" fill="url(#paint1_linear)"/><path opacity=".8" d="M65.35 297.852c23.81 2.691 47.206-3.532 70.809-3.532 23.603 0 47.206-4.204 71.304-1.219 41.264 4.962 81.785 7.652 115.951-7.652 21.192-9.752 38.936-25.896 50.837-46.251 27.152-45.157 28.39-122.27-18.238-155.108-14.03-9.965-30.329-12.235-43.327-24.47-11.389-10.765-15.062-27.33-27.482-38.347a80.724 80.724 0 00-27.902-16.77A79.64 79.64 0 00225.183.205a79.89 79.89 0 00-31.204 8.866 81.323 81.323 0 00-25.304 20.61c-24.758 30.063-26.037 73.581-45.39 107.176-14.911 24.83-38.502 42.979-66.022 50.792-14.855 4.204-31.113 6.012-42.914 15.935-17.29 14.506-18.487 43.139-6.107 62.396 12.379 19.257 34.744 29.18 57.109 31.871z" fill="url(#paint2_linear)"/></g><defs><linearGradient id="paint0_linear" x1="198.922" y1="177.979" x2="198.922" y2="-39.904" gradientUnits="userSpaceOnUse"><stop stop-color="#C1D82E"/><stop offset=".3" stop-color="#A2CD39"/><stop offset=".6" stop-color="#7BC142"/><stop offset="1" stop-color="#199D48"/></linearGradient><linearGradient id="paint1_linear" x1="-22632.6" y1="-90026.2" x2="-15185.2" y2="-75501.7" gradientUnits="userSpaceOnUse"><stop stop-color="#C1D82E"/><stop offset=".3" stop-color="#A2CD39"/><stop offset=".6" stop-color="#7BC142"/><stop offset="1" stop-color="#199D48"/></linearGradient><linearGradient id="paint2_linear" x1="-22351.8" y1="-78085.8" x2="-19020" y2="-91790.5" gradientUnits="userSpaceOnUse"><stop stop-color="#C1D82E"/><stop offset=".3" stop-color="#A2CD39"/><stop offset=".6" stop-color="#7BC142"/><stop offset="1" stop-color="#199D48"/></linearGradient></defs></svg>