<svg width="637" height="541" fill="none" xmlns="../../external.html?link=http://www.w3.org/2000/svg"><path d="M512.387 67.886c-50.022-11.859-90.504 1.784-139.723 3.121A264.109 264.109 0 01235.972 37.57C177.033 5.47 102.758-20.388 42.125 22.679A98.084 98.084 0 00.395 91.248a85.776 85.776 0 0019.26 62.862c24.253 28.533 68.301 33.883 99.42 54.034a203.936 203.936 0 0173.83 82.657c17.833 36.915 27.641 76.862 41.729 115.114 14.089 38.252 32.992 76.326 64.2 103.076 37.806 32.457 112.973 46.991 152.474 9.63a100.215 100.215 0 0024.164-36.38c14.088-33.883 7.49-72.046 19.795-106.375 15.426-43.067 75.167-46.188 106.375-78.199a127.764 127.764 0 0030.542-53.944 127.764 127.764 0 001.558-61.972C620.1 125.042 569.453 80.994 512.387 67.886z" fill="url(#paint0_linear)"/><defs><linearGradient id="paint0_linear" x1="49665.5" y1="-191236" x2="34046.1" y2="-160196" gradientUnits="userSpaceOnUse"><stop stop-color="#C1D82E"/><stop offset=".3" stop-color="#A2CD39"/><stop offset=".6" stop-color="#7BC142"/><stop offset="1" stop-color="#199D48"/></linearGradient></defs></svg>