<svg xmlns="http://www.w3.org/2000/svg" xmlns:xlink="http://www.w3.org/1999/xlink" width="33" height="33" viewBox="0 0 33 33"><defs><path id="kqzpa" d="M980.37 2981.23a.87.87 0 0 1-1.18-.31l-3.46-6a.87.87 0 0 1 .1-1.01l1.77-2-9.51 2.38a.87.87 0 0 1-.96-.4l-.01-.03a.87.87 0 0 1 .17-1.05l9.7-8.9-6.45.93a.86.86 0 0 1-.87-.42l-3.47-6a.87.87 0 1 1 1.5-.86l3.17 5.49 8.65-1.25a.87.87 0 1 1 .7 1.5l-9.24 8.48 8.92-2.23c.37-.1.75.06.95.39.23.3.16.74-.1 1.02l-3.21 3.63 3.15 5.46c.24.41.1.94-.32 1.18zm.06 4.46l-19.5-5.23 5.07-18.92 1.23 2.12-4.18 15.58 17.83 4.77a8.67 8.67 0 0 0 9.73-12.69 8.57 8.57 0 0 0-4.7-3.82l-1.65-.5.39-1.7a8.57 8.57 0 0 0-6.22-10.01 8.63 8.63 0 0 0-8.58 2.53l-.9-1.56a10.35 10.35 0 0 1 17.36 9.55 10.34 10.34 0 0 1 6.84 12.53 10.4 10.4 0 0 1-12.72 7.35z"/></defs><g><g transform="translate(-961 -2953)"><use fill="#ededed" xlink:href="#kqzpa"/></g></g></svg>