<svg id="Слой_1" xmlns="http://www.w3.org/2000/svg" viewBox="0 0 1900.4 2300"><style>.st0{fill:#acacac}</style><path class="st0" d="M3.1 1801.8c1-17 1.6-33.9 2.9-50.9 4.7-60.2 15.9-118.8 42-173.8 34-71.4 87.7-121.5 162.5-148 22.2-7.9 45.4-13.2 67.8-20.7 114.1-38.2 220.4-92.3 319.7-160 16.4-11.2 33.7-16.3 52.9-11.2 25.6 6.7 41.5 24.1 46.5 49.7 5 25.9-3 48.5-24.7 64.5-16.3 12-33.6 22.9-50.8 33.7-103.9 64.8-213.5 117.5-330.6 153.9-9.2 2.9-18.5 5.7-27.8 8.1-47.5 12.4-81.1 41.7-102.9 85-12.7 25.2-19.8 52.2-24.5 79.9-5.2 30.9-7.9 62.1-8.2 93.5-.3 30.6-.7 61.3.4 91.9.8 22.6 4.1 45.1 6 67.7.7 8.4 4.7 13.3 12.2 17.4 48.2 26.5 98.1 49.4 149.3 69.6 103.8 40.9 210.7 70.5 320.5 90.3 54.1 9.8 108.5 17 163.3 22 75.8 7 151.7 9.3 227.7 7.1 163.9-4.8 324.8-29.4 481.8-77.5 89.3-27.4 176-61.5 258.2-106.1.6-.3 1.2-.7 1.7-1 18.8-10.3 18.5-10.3 21-31.9 5.1-45.4 7.1-91 5.8-136.7-1.3-43.6-3.7-87.2-13.8-129.9-7-29.4-17.4-57.4-35.4-82-21-28.7-48.5-48.2-82.9-57.7-110.7-30.7-215-76.7-314.2-134.2-32.8-19-64.5-40-96.4-60.6-18.3-11.8-27.9-29.6-28.6-51.2-.8-26.1 10.3-46.8 33.4-59.4 22.6-12.3 44.7-9.5 65.9 4.9 109.1 73.9 225.7 132.1 352 170.5 20.1 6.1 40.4 11.2 59.6 19.9 69.6 31.6 117.2 84.2 146.5 154 17.3 41.1 26.8 84.3 32.2 128.4 7.3 59.1 7 118.4 5.3 177.7-1.2 41.9-4.9 83.8-15.2 124.7-1.2 4.8-2.7 9.6-4.1 14.4-4.7 15.7-13.9 28.2-28 36.3-27.1 15.6-54.1 31.7-82 45.8-101.4 51.3-208 89.1-317.8 117.9-72.5 19-146 33.4-220.3 43.7-50.2 6.9-100.5 12.2-151.1 14.9-8.3.4-16.6 1.1-24.9 1.6-11.2.1-22.4.3-33.6.4-10.4-.1-20.8-.3-31.2-.2-1.8 0-3.5 1.2-5.3 1.8h-68c-2.1-.6-4.2-1.8-6.4-1.9-9.3-.1-18.6 0-27.9.1-6 0-11.9 0-17.9.1-6 0-11.9-.1-17.9-.1-42.8-3.5-85.7-6.2-128.3-10.8-57.6-6.1-114.7-15.5-171.5-27.2-121-24.8-238.5-60.7-351.5-110.5-48.5-21.3-95.6-45.2-140.8-73-16.8-10.4-28.4-24.2-33-43.2-4.9-20.4-10-40.8-12.6-61.5-3.6-28.4-4.9-57-7.1-85.5 0-13.6.2-27.3.1-40.9-.1-8-.4-15.9-.7-23.9.3-6.6.5-13.3.7-19.9z"/><path class="st0" d="M991.9 2.1c61.6 5.3 120.8 19.6 176.8 46.3 95 45.3 163.3 116.9 207.1 212.1 24 52.1 38.7 107 46.2 163.7 9.8 74.2 13 148.7 9.5 223.4-4.3 92.5-18.4 183.4-49.3 271.2-21.6 61.4-50.9 118.7-92.7 169.1-63 76-143.1 123.3-239.9 142.3-76.7 15.1-153.1 13.2-228.6-7.2-98.4-26.5-175.1-83.7-232.8-167.1-38.1-55.1-63.8-115.9-82.2-180-15.2-53-24.6-107-30.5-161.7-6.5-59.8-7.9-119.7-5-179.7 2.7-55.5 6.7-111 19.3-165.5 16.6-71.6 44.1-138.2 89.2-196.8C638.1 95.7 715.5 46.4 808 20c30.8-8.8 62.3-14.1 94.1-17.6 2-.2 3.9-1.5 5.9-2.3h8c6 4 12 2.2 18 0h32c8.6.6 17.3 1.3 25.9 2zM593.4 594.4c-.1 35.2 1.9 74.1 6.2 112.9 5.4 48.8 14.3 96.8 28.7 143.7 14.2 46.4 33.5 90.5 61.3 130.6 42.6 61.3 99.3 102.4 172.4 119.6 50.2 11.8 100.9 13 151.8 5.1 72.4-11.2 132.8-43.9 180-100.3 32.7-39.1 55.5-83.7 72.2-131.5 27.2-77.4 38.4-157.7 41.7-239.2 2.5-60.7-.6-121.2-7.6-181.6-4.8-41.9-14.4-82.6-30.3-121.7-35.4-86.8-96-148-184.9-179.2-78.8-27.6-159.2-31.1-240-10-97.3 25.5-166.7 84.6-208 176.5-18.3 40.7-29.2 83.6-34.8 127.7-5.8 47.7-8.9 95.5-8.7 147.4z"/></svg>