<svg xmlns="http://www.w3.org/2000/svg" width="25" height="23"><path data-name="Forma 1" d="M1238.17 6806.61h5.41a.42.42 0 1 0 0-.84h-5.41a.42.42 0 0 0 0 .84Zm10.83 1.67h-10.83a.414.414 0 0 0-.42.41.423.423 0 0 0 .42.42H1249a.423.423 0 0 0 .42-.42.414.414 0 0 0-.42-.41Zm0 2.5h-10.83a.42.42 0 0 0 0 .84H1249a.42.42 0 0 0 0-.84Zm7.53-13.75-14.23-.03a2.477 2.477 0 0 0-2.47 2.48v2.14h-3.36a2.477 2.477 0 0 0-2.47 2.48v8.83a2.484 2.484 0 0 0 2.47 2.48h2.53v4.17a.423.423 0 0 0 .27.39.391.391 0 0 0 .45-.11l4.05-4.46 6.93-.02a2.477 2.477 0 0 0 2.47-2.48v-.05l2.19 2.42a.41.41 0 0 0 .31.14.4.4 0 0 0 .15-.03.414.414 0 0 0 .26-.39v-4.18h.45a2.475 2.475 0 0 0 2.47-2.47v-8.84a2.475 2.475 0 0 0-2.47-2.47Zm-4.2 15.87a1.641 1.641 0 0 1-1.64 1.64l-7.11.03a.41.41 0 0 0-.31.14l-3.44 3.79v-3.51a.414.414 0 0 0-.41-.42h-2.95a1.647 1.647 0 0 1-1.64-1.64v-8.83a1.641 1.641 0 0 1 1.64-1.64l3.78-.01 10.45-.02a1.632 1.632 0 0 1 1.63 1.64v8.83Zm5.84-4.57a1.65 1.65 0 0 1-1.64 1.65h-.86a.414.414 0 0 0-.42.41v3.52l-2.08-2.3v-7.54a2.48 2.48 0 0 0-2.48-2.48l-10.02.02v-2.13a1.641 1.641 0 0 1 1.63-1.65l14.23.03a1.647 1.647 0 0 1 1.64 1.64v8.83Z" transform="translate(-1234 -6797)" style="fill:#f39167;fill-rule:evenodd"/></svg>