<svg xmlns="http://www.w3.org/2000/svg" width="22" height="19"><path data-name="Forma 1" d="M1647 658.333c-.04-.6-.79-1.073-2.28-1.432a.763.763 0 0 0 .08-.329v-2.462h-.01c-.13-2.05-8.88-2.111-9.89-2.111s-9.76.061-9.89 2.111h-.01v2.463c0 .668.9 1.191 2.24 1.58a.557.557 0 0 0-.03.18h-.01v2.458c-1.44.356-2.16.82-2.2 1.412v2.462a1.579 1.579 0 0 0 1.15 1.19.814.814 0 0 0-.04.219h-.01v2.462c0 1.17 2.75 1.9 5.8 2.236a.292.292 0 0 0 .07.013h.02c.58.063 1.18.113 1.77.149.02 0 .03.007.04.007h.02c.75.043 1.49.065 2.18.065s1.43-.022 2.18-.066a.142.142 0 0 0 .02 0c.01 0 .02-.006.04-.007.59-.036 1.19-.086 1.77-.149a.08.08 0 0 1 .02 0 .25.25 0 0 0 .07-.013c3.05-.339 5.8-1.066 5.8-2.236v-2.462h-.01a1.465 1.465 0 0 0-1.16-1.092.868.868 0 0 0 .07-.316v-2.3c1.32-.388 2.2-.907 2.2-1.571v-2.46Zm-2.97 6.446-.13.105a3.263 3.263 0 0 1-.93.485v-1.677a5.952 5.952 0 0 0 1.1-.484v1.456a.283.283 0 0 1-.04.115Zm-8.2 1.635h-.56v-1.757h.36c.37-.006.74-.017 1.1-.033v1.756l-.23.011c-.22.009-.45.017-.67.023Zm-1.61 0c-.16 0-.33-.006-.5-.011h-.06c-.2-.006-.4-.014-.59-.024v-1.756c.36.016.73.028 1.1.034h.36v1.759h-.21Zm-6.62-.8-.03-.01v-1.7c.34.089.71.17 1.1.244v1.717a15.7 15.7 0 0 1-.93-.214Zm7.73 2.913h.3v1.759c-.5 0-.99-.018-1.46-.041V668.5c.36.016.73.027 1.1.033h.06Zm1.4 0c.37-.007.74-.017 1.1-.033v1.756c-.47.022-.96.036-1.46.041v-1.759h.36Zm2.94-.16v1.748c-.36.036-.72.068-1.1.093v-1.755c.37-.021.74-.053 1.1-.084Zm.73-.075c.38-.044.74-.094 1.1-.149v1.728c-.35.058-.71.112-1.1.161v-1.74Zm1.83-.274c.39-.074.76-.155 1.1-.243v1.7c-.32.09-.69.177-1.1.261v-1.716Zm-12.46 0v1.718a15.96 15.96 0 0 1-1.1-.261v-1.7c.34.09.71.171 1.1.245Zm.73.126c.35.055.72.105 1.1.148v1.741c-.39-.049-.75-.1-1.1-.162v-1.727Zm1.83.223c.36.034.73.063 1.1.087v1.755a34.82 34.82 0 0 1-1.1-.094v-1.748Zm-.91-2.1-.11-.011-.08-.008V664.5c.36.033.73.061 1.1.086v1.753c-.3-.021-.61-.045-.91-.073Zm-.92-1.842v1.74c-.39-.049-.75-.1-1.1-.161v-1.728c.35.054.72.105 1.1.148Zm7.21 1.9-.24.018v-1.755c.37-.024.74-.052 1.1-.085v1.747c-.23.023-.46.044-.7.063Zm1.59-.158v-1.74c.38-.044.75-.094 1.1-.149V666c-.35.061-.71.116-1.1.164Zm1.83-2.014c.39-.074.76-.155 1.1-.244v1.7c-.32.091-.69.178-1.1.261v-1.72Zm-5.01-1.608c-.28-.006-.55-.017-.81-.028h-.04v-1.756c.36.016.73.027 1.1.033h.36v1.758c-.18 0-.36 0-.53-.007Zm-8.55-5.028v-1.7c.34.088.71.17 1.1.243v1.718l-.14-.028q-.285-.061-.57-.129c-.13-.037-.27-.072-.39-.107Zm6.66-.947h.3v1.757c-.49 0-.98-.017-1.46-.04v-1.755c.36.017.73.027 1.1.033h.06Zm1.4 0c.37-.007.74-.018 1.1-.033v1.755l-.18.01h-.02q-.36.015-.75.023h-.51v-1.757h.36Zm8.35.176h-.01l-.13.1a3.527 3.527 0 0 1-.87.432V655.6a5.884 5.884 0 0 0 1.1-.485v1.456a.255.255 0 0 1-.09.171Zm-4.68 1.327v-1.738c.38-.044.75-.093 1.1-.149v1.725c-.35.055-.71.11-1.1.158Zm1.83-.3v-1.715c.39-.073.76-.155 1.1-.243v1.7c-.33.085-.7.174-1.1.257Zm-2.56-1.365v1.745c-.36.036-.72.067-1.1.093v-1.752c.37-.025.74-.054 1.1-.087Zm-7.34 1.746v-1.746c.36.033.73.062 1.1.086v1.751c-.37-.026-.74-.056-1.1-.092Zm-.73-1.822v1.739c-.07-.009-.15-.017-.22-.027l-.14-.019c-.21-.029-.42-.06-.62-.093l-.12-.021v-1.727c.35.054.72.104 1.1.147Zm3.94 6.132-.15-.011c-.23-.018-.46-.037-.68-.058l-.15-.014h-.03v-1.751c.36.033.73.061 1.1.085v1.753Zm-2.42-.263c-.15-.022-.28-.046-.42-.069v-1.726c.35.055.72.105 1.1.149v1.74a74.59 74.59 0 0 1-.66-.089.03.03 0 0 0-.02-.006Zm-1.15-1.921v1.715c-.41-.083-.78-.172-1.1-.265v-1.693c.34.087.71.169 1.1.242Zm-1.84-.458v1.672a2.393 2.393 0 0 1-1.07-.627l-.02-.039c0-.01-.01-.022-.01-.034v-1.456a5.886 5.886 0 0 0 1.1.483Zm8.8.967c.37-.006.74-.017 1.1-.033v1.755c-.48.022-.97.035-1.46.04v-1.757h.36Zm4.74 1.351c-.17.026-.33.053-.49.077l-.3.041-.28.035v-1.739c.38-.043.75-.093 1.1-.148v1.727Zm-2.49.3c-.13.012-.27.019-.41.029v-1.752c.37-.024.74-.052 1.1-.085v1.745c-.22.022-.43.043-.65.06a.19.19 0 0 1-.04.001Zm4.19-.659c-.18.049-.37.094-.57.139-.09.02-.18.042-.28.061l-.09.017v-1.717c.39-.073.76-.154 1.1-.243v1.7c-.05.012-.1.027-.16.041Zm1.99-3.424c-.03.239-.6.557-1.6.855a25.58 25.58 0 0 1-5.9.847l-.4.015-.33.009c-.3.006-.61.01-.93.01s-.63 0-.93-.011l-.33-.01c-.14 0-.27-.008-.4-.014a25.59 25.59 0 0 1-5.9-.846 2.479 2.479 0 0 1-1.6-.849v-.023c.03.006.06.011.08.017.15.033.29.064.44.1.73.15 1.54.274 2.4.368h.01c.58.064 1.19.114 1.82.15h.02a40.139 40.139 0 0 0 2.19.064h.59a29.259 29.259 0 0 0 6.85-.815c.08-.021.16-.043.23-.066.05-.014.1-.027.14-.041.14-.041.26-.082.39-.126l.06-.023.3-.117a.641.641 0 0 1 .08-.034c.1-.044.2-.089.29-.136l.12-.064c.04-.024.08-.048.12-.074s.05-.027.08-.041c1.64.334 2.07.708 2.11.853Zm-11.36-5.657c6.05 0 9.1.913 9.16 1.437a2.509 2.509 0 0 1-1.6.848 25.645 25.645 0 0 1-5.9.846l-.4.015-.33.009q-.45.011-.93.011t-.93-.011l-.33-.009c-.14 0-.27-.01-.4-.015a25.645 25.645 0 0 1-5.9-.846 2.509 2.509 0 0 1-1.6-.848c.06-.521 3.11-1.437 9.16-1.437Zm-9.17 3.869v-1.458a5.884 5.884 0 0 0 1.1.485v1.685a1.563 1.563 0 0 1-1.1-.709Zm1.78 4.869a.031.031 0 0 0 .02.016 6.368 6.368 0 0 0 2.83 1.154l.1.019.28.06a29.309 29.309 0 0 0 4.16.5c.5.028 1.01.048 1.52.056.23 0 .46.007.68.007.25 0 .51 0 .78-.008q.72-.015 1.41-.055h.02a29.529 29.529 0 0 0 4.23-.519 6.654 6.654 0 0 1-1.08.406 26.335 26.335 0 0 1-6.34.862l-.25.007h-.27c-.23 0-.46.007-.7.007q-.48 0-.93-.011l-.33-.009-.4-.015a25.58 25.58 0 0 1-5.9-.847c-1.01-.3-1.57-.616-1.6-.855.04-.121.41-.452 1.77-.772Zm-1.78 3.224v-1.458a5.95 5.95 0 0 0 1.1.485v1.677l-.21-.078a1.258 1.258 0 0 1-.89-.623Zm1.1 3.87v-1.457a5.886 5.886 0 0 0 1.1.484v1.685a1.566 1.566 0 0 1-1.1-.709Zm17.24.712v-1.685a5.886 5.886 0 0 0 1.1-.484v1.456a1.566 1.566 0 0 1-1.1.716Zm1.09-3.146a2.488 2.488 0 0 1-1.6.85 25.59 25.59 0 0 1-5.9.846l-.4.016-.33.008q-.45.01-.93.011t-.93-.011l-.33-.01-.4-.014a25.645 25.645 0 0 1-5.9-.846 2.685 2.685 0 0 1-1.6-.828c.11.036.22.072.34.107a.172.172 0 0 0 .04.009c.1.03.2.058.3.085l.12.032.18.044a27.619 27.619 0 0 0 4.88.665q.855.049 1.74.059h1.08a36.006 36.006 0 0 0 3.41-.21h.03c.65-.073 1.27-.161 1.84-.264l.35-.064c.02-.006.05-.01.07-.016a10.206 10.206 0 0 0 2.67-.831c.03-.019.07-.038.1-.056l.12-.071c.03-.023.07-.043.1-.066a1.477 1.477 0 0 1 .95.557Zm.01-4.6v-1.684a5.95 5.95 0 0 0 1.1-.485v1.456a1.563 1.563 0 0 1-1.1.721Z" transform="translate(-1625 -652)" style="fill:#f39167;fill-rule:evenodd"/></svg>