<svg xmlns="http://www.w3.org/2000/svg" width="18" height="23" viewBox="0 0 18.28 23"><path d="M1651.03 390.392h.15a4 4 0 0 0 3.13-1.455c1.71-2.07 1.43-5.613 1.4-5.95-.11-2.538-1.23-3.75-2.16-4.317a4.691 4.691 0 0 0-2.39-.675h-.08a4.7 4.7 0 0 0-2.39.652c-.93.569-2.07 1.783-2.18 4.34-.04.337-.32 3.88 1.39 5.95a4 4 0 0 0 3.13 1.455Zm-3.34-7.285a.306.306 0 0 1 .01-.039c.14-3.412 2.41-3.781 3.38-3.781h.05c1.2.029 3.24.55 3.38 3.781a.055.055 0 0 0 .01.039c0 .032.31 3.272-1.1 4.974a2.822 2.822 0 0 1-2.29 1.023h-.05a2.789 2.789 0 0 1-2.28-1.023c-1.41-1.694-1.11-4.949-1.11-4.974Zm12.56 13.162v-.016c0-.039-.01-.077-.01-.119-.03-.945-.08-3.148-2.01-3.855a.159.159 0 0 1-.05-.014 12.624 12.624 0 0 1-3.69-1.8.58.58 0 0 0-.84.157.671.671 0 0 0 .15.893 13.563 13.563 0 0 0 4.06 1.987c1.04.4 1.15 1.584 1.18 2.671a.479.479 0 0 0 .01.119 9.979 9.979 0 0 1-.09 1.471 16.729 16.729 0 0 1-15.69-.007 9.932 9.932 0 0 1-.1-1.471c0-.036.01-.074.01-.119.03-1.085.15-2.271 1.18-2.668a13.362 13.362 0 0 0 4.06-1.988.668.668 0 0 0 .15-.89.574.574 0 0 0-.84-.159 12.192 12.192 0 0 1-3.69 1.8.247.247 0 0 0-.04.014c-1.93.711-1.99 2.914-2.02 3.855v.134a7.454 7.454 0 0 0 .23 2.156.563.563 0 0 0 .23.3 17.683 17.683 0 0 0 17.36 0 .616.616 0 0 0 .23-.3 8.548 8.548 0 0 0 .22-2.151Z" transform="translate(-1641.97 -378)" style="fill:#f39168;fill-rule:evenodd"/></svg>