<svg xmlns="http://www.w3.org/2000/svg" width="20" height="23" viewBox="0 0 20 23.812"><path d="M1658.29 469.071a2.265 2.265 0 0 0-1.54-.98 2.3 2.3 0 0 0-1.74.561l-1.71 1.376a7.216 7.216 0 0 0-.34-.245 4.882 4.882 0 0 1-.45-.33 17.233 17.233 0 0 1-3.52-4.241 10.486 10.486 0 0 1-1.05-2.288c.44-.322.85-.664 1.25-.994.16-.121.31-.251.46-.373a2.36 2.36 0 0 0 .41-3.445l-1.16-1.53c-.13-.172-.26-.351-.39-.529-.25-.349-.52-.706-.79-1.043a2.277 2.277 0 0 0-1.53-.94 2.309 2.309 0 0 0-1.72.524c-.01.006-.01.006-.01.01l-1.84 1.5a3.627 3.627 0 0 0-1.32 2.183 9.143 9.143 0 0 0 .17 3.779 22 22 0 0 0 2.93 6.827 23.349 23.349 0 0 0 6.82 7.077 11.717 11.717 0 0 0 4.09 1.833c.1.016.2.036.3.048a3.58 3.58 0 0 0 2.93-.882.062.062 0 0 1 .02-.025 11.934 11.934 0 0 1 .95-.793c.23-.177.47-.363.7-.562a2.507 2.507 0 0 0 .93-1.634 2.428 2.428 0 0 0-.54-1.8Zm1.1 5.469c-.01 0-.01 0 0 0-.22.183-.43.351-.66.533a12.654 12.654 0 0 0-1.05.878 2.285 2.285 0 0 1-1.91.564l-.22-.033a10.227 10.227 0 0 1-3.61-1.645 21.924 21.924 0 0 1-6.43-6.663 20.849 20.849 0 0 1-2.76-6.418 7.439 7.439 0 0 1-.17-3.19 2.329 2.329 0 0 1 .84-1.4l1.85-1.488a1.079 1.079 0 0 1 .77-.264 1.032 1.032 0 0 1 .66.441.117.117 0 0 1 .02.019c.26.318.5.648.76 1 .13.179.26.359.4.544l1.15 1.524a.975.975 0 0 1-.18 1.543c-.16.131-.31.259-.47.381-.45.373-.89.726-1.35 1.062a.1.1 0 0 0-.03.018 1.042 1.042 0 0 0-.38 1.1.076.076 0 0 0 .01.048 11.058 11.058 0 0 0 1.24 2.822 18.377 18.377 0 0 0 3.8 4.575 6.847 6.847 0 0 0 .56.409c.16.111.31.217.44.323a.417.417 0 0 1 .05.042 1.054 1.054 0 0 0 .47.186.989.989 0 0 0 .77-.252l1.85-1.5a1.1 1.1 0 0 1 .77-.285 1 1 0 0 1 .65.456c.01 0 .01 0 .01.008l2.33 3.087a1.02 1.02 0 0 1-.18 1.575Z" transform="translate(-1641.16 -454.063)" style="fill:#f39168;fill-rule:evenodd"/></svg>