<?xml version="1.0" encoding="utf-8"?>
<!-- Generator: Adobe Illustrator 22.0.0, SVG Export Plug-In . SVG Version: 6.00 Build 0)  -->
<svg version="1.1" id="Layer_1" xmlns="http://www.w3.org/2000/svg" xmlns:xlink="http://www.w3.org/1999/xlink" x="0px" y="0px"
	 viewBox="0 0 36 36" style="enable-background:new 0 0 36 36;" xml:space="preserve">
<style type="text/css">
	.st0{fill:url(#SVGID_1_);}
	.st1{fill:url(#SVGID_2_);}
	.st2{opacity:0.75;fill:url(#SVGID_3_);enable-background:new    ;}
	.st3{opacity:0.5;fill:url(#SVGID_4_);enable-background:new    ;}
</style>
<linearGradient id="SVGID_1_" gradientUnits="userSpaceOnUse" x1="-389.198" y1="307.6883" x2="-389.5149" y2="305.6873" gradientTransform="matrix(33.3333 0 0 -33.3333 12997.999 10229.1992)">
	<stop  offset="0" style="stop-color:#00CC00"/>
	<stop  offset="0.1878" style="stop-color:#06C102"/>
	<stop  offset="0.5185" style="stop-color:#17A306"/>
	<stop  offset="0.9507" style="stop-color:#33740C"/>
	<stop  offset="1" style="stop-color:#366E0D"/>
</linearGradient>
<path class="st0" d="M5.5,19.1c-1.1,0-2.2,0.5-3,1.4c-0.7,0.8-1.1,1.8-1,2.9s0.6,2.1,1.4,2.8l7.2,6.3c0.7,0.6,1.7,1,2.7,1
	c0.1,0,0.2,0,0.3,0c1.1-0.1,2.1-0.6,2.8-1.5l17.7-21.7C35,8.6,34.7,6.1,33,4.7c-0.8-0.7-1.9-1-2.9-0.9c-1.1,0.1-2,0.6-2.7,1.5
	L12.3,23.7l-4.1-3.6C7.4,19.4,6.5,19.1,5.5,19.1z"/>
<linearGradient id="SVGID_2_" gradientUnits="userSpaceOnUse" x1="-389.2285" y1="306.9176" x2="-389.6413" y2="305.7029" gradientTransform="matrix(33.3333 0 0 -33.3333 12997.999 10229.1992)">
	<stop  offset="0.2544" style="stop-color:#90D856"/>
	<stop  offset="0.736" style="stop-color:#00CC00"/>
	<stop  offset="0.7716" style="stop-color:#0BCD07"/>
	<stop  offset="0.8342" style="stop-color:#29CF18"/>
	<stop  offset="0.9166" style="stop-color:#59D335"/>
	<stop  offset="1" style="stop-color:#90D856"/>
</linearGradient>
<path class="st1" d="M12.8,32.8c-0.8,0-1.6-0.3-2.2-0.8l-7.2-6.3C2,24.4,1.8,22.3,3,20.9c1.2-1.4,3.3-1.5,4.7-0.3l4.7,4.1l15.5-19
	c1.2-1.4,3.2-1.6,4.7-0.5C34,6.4,34.2,8.4,33,9.9L15.3,31.6c-0.6,0.7-1.4,1.1-2.3,1.2C12.9,32.8,12.8,32.8,12.8,32.8z"/>
<radialGradient id="SVGID_3_" cx="-401.8765" cy="314.7" r="5.281894e-02" gradientTransform="matrix(-122.6901 250.1212 128.1814 62.8759 -89620.8828 80744.0859)" gradientUnits="userSpaceOnUse">
	<stop  offset="0" style="stop-color:#FBE07A;stop-opacity:0.75"/>
	<stop  offset="8.033940e-02" style="stop-color:#FBE387;stop-opacity:0.6897"/>
	<stop  offset="0.5173" style="stop-color:#FDF2C7;stop-opacity:0.362"/>
	<stop  offset="0.8357" style="stop-color:#FFFBF0;stop-opacity:0.1233"/>
	<stop  offset="1" style="stop-color:#FFFFFF;stop-opacity:0"/>
</radialGradient>
<path class="st2" d="M12.8,32.8c-0.8,0-1.6-0.3-2.2-0.8l-7.2-6.3C2,24.4,1.8,22.3,3,20.9c1.2-1.4,3.3-1.5,4.7-0.3l4.7,4.1l15.5-19
	c1.2-1.4,3.2-1.6,4.7-0.5C34,6.4,34.2,8.4,33,9.9L15.3,31.6c-0.6,0.7-1.4,1.1-2.3,1.2C12.9,32.8,12.8,32.8,12.8,32.8z"/>
<radialGradient id="SVGID_4_" cx="-402.4192" cy="313.6622" r="5.281894e-02" gradientTransform="matrix(-296.8668 136.4431 57.7568 125.6646 -137563.625 15518.5674)" gradientUnits="userSpaceOnUse">
	<stop  offset="0" style="stop-color:#440063;stop-opacity:0.25"/>
	<stop  offset="1" style="stop-color:#420061;stop-opacity:0"/>
</radialGradient>
<path class="st3" d="M12.8,32.8c-0.8,0-1.6-0.3-2.2-0.8l-7.2-6.3C2,24.4,1.8,22.3,3,20.9c1.2-1.4,3.3-1.5,4.7-0.3l4.7,4.1l15.5-19
	c1.2-1.4,3.2-1.6,4.7-0.5C34,6.4,34.2,8.4,33,9.9L15.3,31.6c-0.6,0.7-1.4,1.1-2.3,1.2C12.9,32.8,12.8,32.8,12.8,32.8z"/>
</svg>
