<svg width="90" height="14" viewBox="0 0 90 14" fill="none" xmlns="../../external.html?link=http://www.w3.org/2000/svg">
<g clip-path="url(#clip0)">
<path d="M13.9675 5.38966C13.7529 4.71829 12.5714 4.5649 11.3203 4.39934C10.6346 4.30939 9.85548 4.20771 9.6204 4.03346C9.38357 3.86051 9.05332 3.14917 8.76131 2.52039C8.23031 1.37712 7.72754 0.298589 7.02446 0.29685L7.01142 0.294678C6.31442 0.30641 5.80644 1.3719 5.26631 2.50301C4.96865 3.12831 4.63014 3.83705 4.39419 4.00869C4.15563 4.17859 3.3765 4.27419 2.68862 4.35762C1.43888 4.50971 0.255633 4.65224 0.0348864 5.32013C-0.18586 5.98802 0.677571 6.80886 1.59271 7.6762C2.09504 8.15333 2.66385 8.6939 2.75337 8.972C2.84288 9.25011 2.69123 10.0218 2.55869 10.7002C2.31622 11.936 2.08722 13.1062 2.65386 13.5247C2.78943 13.6216 2.95977 13.6707 3.16097 13.6663C3.73934 13.6572 4.57148 13.207 5.37581 12.7707C5.97852 12.4414 6.66205 12.0698 6.96623 12.0664C7.26041 12.0664 7.94612 12.4483 8.551 12.7851C9.37358 13.2418 10.2248 13.7146 10.8041 13.705C10.9849 13.7024 11.1391 13.6559 11.2651 13.5651C11.8352 13.1544 11.618 11.9847 11.389 10.7441C11.263 10.0644 11.1217 9.29095 11.2108 9.01285C11.3029 8.73605 11.8783 8.20243 12.3854 7.72878C13.3088 6.8697 14.1805 6.06102 13.9675 5.38966Z" fill="#FFB800"/>
</g>
<g clip-path="url(#clip1)">
<path d="M32.9675 5.38966C32.7529 4.71829 31.5714 4.5649 30.3203 4.39934C29.6346 4.30939 28.8555 4.20771 28.6204 4.03346C28.3836 3.86051 28.0533 3.14917 27.7613 2.52039C27.2303 1.37712 26.7275 0.298589 26.0245 0.29685L26.0114 0.294678C25.3144 0.30641 24.8064 1.3719 24.2663 2.50301C23.9687 3.12831 23.6301 3.83705 23.3942 4.00869C23.1556 4.17859 22.3765 4.27419 21.6886 4.35762C20.4389 4.50971 19.2556 4.65224 19.0349 5.32013C18.8141 5.98802 19.6776 6.80886 20.5927 7.6762C21.095 8.15333 21.6639 8.6939 21.7534 8.972C21.8429 9.25011 21.6912 10.0218 21.5587 10.7002C21.3162 11.936 21.0872 13.1062 21.6539 13.5247C21.7894 13.6216 21.9598 13.6707 22.161 13.6663C22.7393 13.6572 23.5715 13.207 24.3758 12.7707C24.9785 12.4414 25.6621 12.0698 25.9662 12.0664C26.2604 12.0664 26.9461 12.4483 27.551 12.7851C28.3736 13.2418 29.2248 13.7146 29.8041 13.705C29.9849 13.7024 30.1391 13.6559 30.2651 13.5651C30.8352 13.1544 30.618 11.9847 30.389 10.7441C30.263 10.0644 30.1217 9.29095 30.2108 9.01285C30.3029 8.73605 30.8783 8.20243 31.3854 7.72878C32.3088 6.8697 33.1805 6.06102 32.9675 5.38966Z" fill="#FFB800"/>
</g>
<g clip-path="url(#clip2)">
<path d="M51.9675 5.38966C51.7529 4.71829 50.5714 4.5649 49.3203 4.39934C48.6346 4.30939 47.8555 4.20771 47.6204 4.03346C47.3836 3.86051 47.0533 3.14917 46.7613 2.52039C46.2303 1.37712 45.7275 0.298589 45.0245 0.29685L45.0114 0.294678C44.3144 0.30641 43.8064 1.3719 43.2663 2.50301C42.9687 3.12831 42.6301 3.83705 42.3942 4.00869C42.1556 4.17859 41.3765 4.27419 40.6886 4.35762C39.4389 4.50971 38.2556 4.65224 38.0349 5.32013C37.8141 5.98802 38.6776 6.80886 39.5927 7.6762C40.095 8.15333 40.6639 8.6939 40.7534 8.972C40.8429 9.25011 40.6912 10.0218 40.5587 10.7002C40.3162 11.936 40.0872 13.1062 40.6539 13.5247C40.7894 13.6216 40.9598 13.6707 41.161 13.6663C41.7393 13.6572 42.5715 13.207 43.3758 12.7707C43.9785 12.4414 44.6621 12.0698 44.9662 12.0664C45.2604 12.0664 45.9461 12.4483 46.551 12.7851C47.3736 13.2418 48.2248 13.7146 48.8041 13.705C48.9849 13.7024 49.1391 13.6559 49.2651 13.5651C49.8352 13.1544 49.618 11.9847 49.389 10.7441C49.263 10.0644 49.1217 9.29095 49.2108 9.01285C49.3029 8.73605 49.8783 8.20243 50.3854 7.72878C51.3088 6.8697 52.1805 6.06102 51.9675 5.38966Z" fill="#FFB800"/>
</g>
<g clip-path="url(#clip3)">
<path d="M70.9675 5.38966C70.7529 4.71829 69.5714 4.5649 68.3203 4.39934C67.6346 4.30939 66.8555 4.20771 66.6204 4.03346C66.3836 3.86051 66.0533 3.14917 65.7613 2.52039C65.2303 1.37712 64.7275 0.298589 64.0245 0.29685L64.0114 0.294678C63.3144 0.30641 62.8064 1.3719 62.2663 2.50301C61.9687 3.12831 61.6301 3.83705 61.3942 4.00869C61.1556 4.17859 60.3765 4.27419 59.6886 4.35762C58.4389 4.50971 57.2556 4.65224 57.0349 5.32013C56.8141 5.98802 57.6776 6.80886 58.5927 7.6762C59.095 8.15333 59.6639 8.6939 59.7534 8.972C59.8429 9.25011 59.6912 10.0218 59.5587 10.7002C59.3162 11.936 59.0872 13.1062 59.6539 13.5247C59.7894 13.6216 59.9598 13.6707 60.161 13.6663C60.7393 13.6572 61.5715 13.207 62.3758 12.7707C62.9785 12.4414 63.6621 12.0698 63.9662 12.0664C64.2604 12.0664 64.9461 12.4483 65.551 12.7851C66.3736 13.2418 67.2248 13.7146 67.8041 13.705C67.9849 13.7024 68.1391 13.6559 68.2651 13.5651C68.8352 13.1544 68.618 11.9847 68.389 10.7441C68.263 10.0644 68.1217 9.29095 68.2108 9.01285C68.3029 8.73605 68.8783 8.20243 69.3854 7.72878C70.3088 6.8697 71.1805 6.06102 70.9675 5.38966Z" fill="#FFB800"/>
</g>
<g clip-path="url(#clip4)">
<path d="M89.9675 5.38966C89.7529 4.71829 88.5714 4.5649 87.3203 4.39934C86.6346 4.30939 85.8555 4.20771 85.6204 4.03346C85.3836 3.86051 85.0533 3.14917 84.7613 2.52039C84.2303 1.37712 83.7275 0.298589 83.0245 0.29685L83.0114 0.294678C82.3144 0.30641 81.8064 1.3719 81.2663 2.50301C80.9687 3.12831 80.6301 3.83705 80.3942 4.00869C80.1556 4.17859 79.3765 4.27419 78.6886 4.35762C77.4389 4.50971 76.2556 4.65224 76.0349 5.32013C75.8141 5.98802 76.6776 6.80886 77.5927 7.6762C78.095 8.15333 78.6639 8.6939 78.7534 8.972C78.8429 9.25011 78.6912 10.0218 78.5587 10.7002C78.3162 11.936 78.0872 13.1062 78.6539 13.5247C78.7894 13.6216 78.9598 13.6707 79.161 13.6663C79.7393 13.6572 80.5715 13.207 81.3758 12.7707C81.9785 12.4414 82.6621 12.0698 82.9662 12.0664C83.2604 12.0664 83.9461 12.4483 84.551 12.7851C85.3736 13.2418 86.2248 13.7146 86.8041 13.705C86.9849 13.7024 87.1391 13.6559 87.2651 13.5651C87.8352 13.1544 87.618 11.9847 87.389 10.7441C87.263 10.0644 87.1217 9.29095 87.2108 9.01285C87.3029 8.73605 87.8783 8.20243 88.3854 7.72878C89.3088 6.8697 90.1805 6.06102 89.9675 5.38966Z" fill="#FFB800"/>
</g>
<defs>
<clipPath id="clip0">
<rect width="14" height="14" fill="white"/>
</clipPath>
<clipPath id="clip1">
<rect width="14" height="14" fill="white" transform="translate(19)"/>
</clipPath>
<clipPath id="clip2">
<rect width="14" height="14" fill="white" transform="translate(38)"/>
</clipPath>
<clipPath id="clip3">
<rect width="14" height="14" fill="white" transform="translate(57)"/>
</clipPath>
<clipPath id="clip4">
<rect width="14" height="14" fill="white" transform="translate(76)"/>
</clipPath>
</defs>
</svg>
