<?xml version="1.0" encoding="utf-8"?>
<!-- Generator: Adobe Illustrator 22.0.0, SVG Export Plug-In . SVG Version: 6.00 Build 0)  -->
<svg version="1.1" id="Layer_1" xmlns="http://www.w3.org/2000/svg" xmlns:xlink="http://www.w3.org/1999/xlink" x="0px" y="0px"
	 viewBox="0 0 27 27" style="enable-background:new 0 0 27 27;" xml:space="preserve">
<style type="text/css">
	.st0{fill:#E43535;}
	.st1{fill:#80D25B;}
	.st2{fill:none;stroke:#22BA8E;stroke-width:2;stroke-linecap:round;}
</style>
<g>
	<path class="st0" d="M7.7,1.7c-4.2,0-7.7,2.5-7.7,7.7S11.6,26,13.6,26S27.1,14.5,27.1,9.4s-3.4-7.7-7.6-7.7c-2.3,0-4.4,1.1-5.9,2.7
		C12.2,2.8,10.1,1.7,7.7,1.7z"/>
	<path class="st1" d="M16.8,11.7c0.3,1.2,1.6,1.9,2.9,1.6c1.3-0.3,4.5-3.5,4.5-3.5s-4.4-1.1-5.7-0.8C17.3,9.3,16.5,10.5,16.8,11.7z"
		/>
	<path class="st1" d="M10.7,11.7c-0.3,1.2-1.6,1.9-2.9,1.6S3.3,9.7,3.3,9.7S7.8,8.6,9,8.9S11.1,10.5,10.7,11.7z"/>
	<path class="st2" d="M19,11.2c-3,0-5.4,2.4-5.4,5.4"/>
	<path class="st2" d="M8.2,11.2c3,0,5.4,2.4,5.4,5.4"/>
</g>
</svg>
