<svg id="icons" xmlns="http://www.w3.org/2000/svg" viewBox="0 0 48.07 45.48"><defs><style>.cls-1,.cls-2{fill:none;stroke:#505050;stroke-width:2px;}.cls-1{stroke-linejoin:round;}.cls-2{stroke-miterlimit:10;}</style></defs><title>sleep-ico2</title><line class="cls-1" x1="42.07" y1="18.88" x2="42.07" y2="20.88"/><line class="cls-1" x1="42.07" y1="22.88" x2="42.07" y2="24.88"/><line class="cls-1" x1="43.07" y1="21.88" x2="45.07" y2="21.88"/><line class="cls-1" x1="39.07" y1="21.88" x2="41.07" y2="21.88"/><line class="cls-1" x1="39.07" y1="27.88" x2="39.07" y2="29.88"/><line class="cls-1" x1="39.07" y1="31.88" x2="39.07" y2="33.88"/><line class="cls-1" x1="40.07" y1="30.88" x2="42.07" y2="30.88"/><line class="cls-1" x1="36.07" y1="30.88" x2="38.07" y2="30.88"/><path class="cls-1" d="M31.13,15.57a3.48,3.48,0,0,1,1.19-2h0A3.33,3.33,0,0,1,30,8.59L33.49,2.5,27,5.56A3.27,3.27,0,0,1,22.36,3h0l-0.2.23a4.41,4.41,0,0,1-6.25.06L13.69,1.12,13.18,3.67A3.6,3.6,0,0,1,8.24,6.35h0l0.1,0.29a3.57,3.57,0,0,1-2.9,4.73L1.05,12,4.2,14.58a3.56,3.56,0,0,1-.13,5.59h0l0.3,0.06A3.63,3.63,0,0,1,7,25.09c-0.43,1.25-1.66,4.18-1.66,4.18l3.84-1.51A3.59,3.59,0,0,1,14,30.67h0l0.26-.3a3.28,3.28,0,0,1,2.27-1.14" transform="translate(-0.05 -0.12)"/><path class="cls-2" d="M17.44,26A9,9,0,1,1,27.07,15.7" transform="translate(-0.05 -0.12)"/><path class="cls-1" d="M29.29,33.39a10.66,10.66,0,0,1,6.44-14.91A13.17,13.17,0,1,0,45,37.58,10.66,10.66,0,0,1,29.29,33.39Z" transform="translate(-0.05 -0.12)"/><line class="cls-1" x1="48.07" y1="28.88" x2="46.07" y2="28.88"/></svg>