<svg xmlns="http://www.w3.org/2000/svg" xmlns:xlink="http://www.w3.org/1999/xlink" width="532" height="2068" viewBox="0 0 532 2068"><svg viewBox="-10 -10 515.9780000000001 515.9780000000001" width="532" height="532"><path d="M143.978 360.088c-26.4 0-48 21.6-48 48s21.6 48 48 48 48-21.6 48-48-21.6-48-48-48zm0 80c-17.6 0-32-14.4-32-32s14.4-32 32-32 32 14.4 32 32-14.4 32-32 32zm248-168c-26.4 0-48 21.6-48 48s21.6 48 48 48 48-21.6 48-48-21.6-48-48-48zm0 80c-17.6 0-32-14.4-32-32s14.4-32 32-32 32 14.4 32 32-14.4 32-32 32zm-272-240c-26.4 0-48 21.6-48 48s21.6 48 48 48 48-21.6 48-48-21.6-48-48-48zm0 80c-17.6 0-32-14.4-32-32s14.4-32 32-32 32 14.4 32 32-14.4 32-32 32zm48 96v16c40 0 72 32 72 72h16c0-48.8-39.2-88-88-88z" fill="#709314"/><path d="M407.978 96.088h-3.2c16.8-13.6 27.2-34.4 27.2-56v-32c0-4.8-3.2-8-8-8-40 0-72 32-72 72v24.8c-27.2 4-48 27.2-48 55.2v16h-8c-4.8 0-8-3.2-8-8 0-13.6-10.4-24-24-24h-8v16h8c4.8 0 8 3.2 8 8 0 13.6 10.4 24 24 24h8v18.4c-32.8 14.4-56.8 41.6-67.2 76-5.6-4-11.2-7.2-17.6-10.4 29.6-42.4 28-99.2-4-140.8 14.4-3.2 24.8-16 24.8-31.2h24c40 0 72-32 72-72 0-4.8-3.2-8-8-8h-32c-22.4 0-44 10.4-57.6 28.8-4.8-26.4-28-44.8-54.4-44.8-4.8 0-8 3.2-8 8v32c0 28 20.8 51.2 48 55.2v.8c0 8.8-7.2 16-16 16h-6.4c-48.8-44.8-124.8-41.6-169.6 6.4s-42.4 124.8 6.4 169.6c8.8 8 19.2 15.2 30.4 20.8-37.6 54.4-23.2 129.6 32 166.4 55.2 36.8 129.6 23.2 166.4-32 7.2-10.4 12-21.6 16-33.6 54.4 38.4 128.8 24.8 167.2-29.6 38.4-54.4 24.8-128.8-29.6-167.2-29.6-20.8-66.4-27.2-100.8-17.6v-43.2c0-19.2 13.6-35.2 32.8-39.2 4 44.8 42.4 79.2 87.2 79.2h48c4.8 0 8-3.2 8-8 0-48.8-39.2-88-88-88zm-112-64h23.2c-4 27.2-28 48-55.2 48h-23.2c4-27.2 27.2-48 55.2-48zm-104 8v-23.2c18.4 4 32 20 32 39.2v23.2c-18.4-4-32-20-32-39.2zm-176 160c0-57.6 46.4-104 104-104s104 46.4 104 104c0 22.4-7.2 44-20 61.6-31.2-9.6-65.6-6.4-94.4 9.6-35.2-4.8-61.6-35.2-61.6-71.2h-16c0 37.6 24 71.2 60 83.2-4.8 4-8.8 8-12.8 12-38.4-16-63.2-53.6-63.2-95.2zm152 280c-57.6 0-104-46.4-104-104s46.4-104 104-104 104 46.4 104 104-46.4 104-104 104zm206.4-269.6c48 11.2 81.6 52.8 81.6 101.6 0 57.6-46.4 104-104 104-24 0-47.2-8-65.6-23.2 3.2-20 .8-40.8-6.4-59.2v-21.6c0-40 32-72 72-72v-16c-45.6 0-84 35.2-88 80.8-4-5.6-8.8-11.2-13.6-16 12.8-56 68-91.2 124-78.4zm-6.4-138.4c0-28 20.8-51.2 48-55.2v23.2c0 28-20.8 51.2-48 55.2v-23.2zm72 104c-36.8 0-67.2-27.2-71.2-64h39.2c36.8 0 67.2 27.2 71.2 64h-39.2z" fill="#709314"/></svg><svg width="532" height="532" viewBox="-10 -10 532 532" y="532"><g fill="#709314"><path d="M418.006 217.028V109.854c14.707-3.798 25.6-17.175 25.6-33.054 0-18.199-14.31-33.11-32.271-34.081l6.503-32.514A8.525 8.525 0 0 0 409.475 0h-102.4a8.544 8.544 0 0 0-6.605 3.123 8.58 8.58 0 0 0-1.766 7.083l6.503 32.514c-17.96.972-32.267 15.882-32.267 34.08 0 15.879 10.893 29.256 25.6 33.054v107.175c-16.17 6.846-30.776 16.351-43.4 27.861l.362-5.555c1.297-27.068-8.294-52.779-26.999-72.388-17.651-18.513-41.122-29.172-66.496-30.307v-17.173a8.53 8.53 0 0 0 8.533-8.533V42.667c0-14.114-11.486-25.6-25.6-25.6h-34.133c-14.114 0-25.6 11.486-25.6 25.6v68.267a8.53 8.53 0 0 0 8.533 8.533v17.173c-25.374 1.135-48.845 11.794-66.505 30.307C8.538 186.557-1.053 212.268.244 239.489l15.155 231.876C16.483 494.148 35.205 512 58.023 512h139.699c22.818 0 41.54-17.852 42.615-40.491l.897-13.756C269.432 490.918 311.434 512 358.273 512c84.693 0 153.6-68.907 153.6-153.6 0-61.431-37.487-117.504-93.867-141.372zM399.064 17.067l-5.12 25.6h-71.347l-5.12-25.6h81.587zM290.006 76.8c0-9.412 7.654-17.067 17.067-17.067h102.4c9.412 0 17.067 7.654 17.067 17.067 0 9.412-7.654 17.067-17.067 17.067h-102.4c-9.413 0-17.067-7.655-17.067-17.067zM102.273 42.667c0-4.702 3.823-8.533 8.533-8.533h34.133c4.71 0 8.533 3.831 8.533 8.533V102.4h-51.2V42.667zm42.666 76.8v17.067h-34.133v-17.067h34.133zm78.358 351.087c-.648 13.67-11.887 24.38-25.574 24.38h-139.7c-13.696 0-24.926-10.709-25.583-24.533L17.285 238.524c-1.067-22.357 6.861-43.597 22.306-59.802S75.883 153.6 98.266 153.6h59.212c22.383 0 43.23 8.917 58.675 25.122s23.364 37.444 22.306 59.648l-1.728 26.516c-20.279 26.338-32.06 59.082-32.06 93.514 0 28.153 7.621 54.556 20.898 77.269l-2.272 34.885zm134.976 24.379c-49.006 0-92.06-25.962-116.149-64.848a8.58 8.58 0 0 0-1.273-2.099c-12.131-20.391-19.111-44.188-19.111-69.587 0-56.354 35.507-107.639 88.354-127.616a8.537 8.537 0 0 0 5.513-7.979V110.933h85.333v111.872a8.538 8.538 0 0 0 5.513 7.979c52.847 19.977 88.354 71.262 88.354 127.616-.001 75.281-61.253 136.533-136.534 136.533z"/><path d="M127.873 196.267c-33.493 0-59.733 37.487-59.733 85.333s26.24 85.333 59.733 85.333 59.733-37.487 59.733-85.333-26.24-85.333-59.733-85.333zm0 153.6c-23.125 0-42.667-31.266-42.667-68.267s19.541-68.267 42.667-68.267 42.667 31.266 42.667 68.267c-.001 37.001-19.542 68.267-42.667 68.267zm307.2-76.8a8.53 8.53 0 0 0-8.533-8.533c-29.7 0-55.495 16.958-68.267 41.685-12.772-24.728-38.567-41.685-68.267-41.685a8.53 8.53 0 0 0-8.533 8.533c0 39.458 29.919 72.054 68.267 76.315v29.089c-14.09-17.429-35.626-28.604-59.733-28.604a8.53 8.53 0 0 0-8.533 8.533c0 39.458 29.919 72.054 68.267 76.315V460.8c0 4.71 3.814 8.533 8.533 8.533s8.533-3.823 8.533-8.533v-26.086c38.347-4.26 68.267-36.857 68.267-76.315a8.53 8.53 0 0 0-8.533-8.533c-24.108 0-45.643 11.175-59.733 28.604v-29.089c38.345-4.26 68.265-36.857 68.265-76.314zm-17.784 9.25c-3.985 25.549-24.218 45.781-49.766 49.766 3.985-25.549 24.217-45.781 49.766-49.766zm-118.033 0c25.549 3.985 45.781 24.218 49.766 49.766-25.548-3.985-45.781-24.217-49.766-49.766zm0 85.333c25.549 3.985 45.781 24.218 49.766 49.766-25.548-3.984-45.781-24.217-49.766-49.766zm118.033 0c-3.985 25.549-24.218 45.781-49.766 49.766 3.985-25.548 24.217-45.781 49.766-49.766zM179.073 384h-102.4a8.53 8.53 0 0 0-8.533 8.533 8.53 8.53 0 0 0 8.533 8.533h102.4a8.53 8.53 0 0 0 8.533-8.533 8.531 8.531 0 0 0-8.533-8.533zm0 34.133h-102.4c-4.719 0-8.533 3.823-8.533 8.533s3.814 8.533 8.533 8.533h102.4c4.719 0 8.533-3.823 8.533-8.533s-3.815-8.533-8.533-8.533z"/></g></svg><svg width="118" height="118" viewBox="-10 -10 118 118" y="1064"><path clip-rule="evenodd" fill="none" stroke="#474747" stroke-width="2" stroke-linecap="round" stroke-linejoin="round" stroke-miterlimit="10" d="M49 1c26.51 0 48 21.49 48 48S75.51 97 49 97 1 75.51 1 49 22.49 1 49 1z"/><path fill="none" stroke="#474747" stroke-width="2" stroke-linecap="round" stroke-linejoin="round" stroke-miterlimit="10" d="M26.333 18.083h45.333V82.43H26.333z"/><path fill="none" stroke="#474747" stroke-width="2" stroke-linecap="round" stroke-linejoin="round" stroke-miterlimit="10" d="M31.14 64.888h35.72v10.195H31.14zm25.72-22.985H31.14V31.708h25.72M36.807 69.986h24.386"/><path fill="none" stroke="#474747" stroke-width="2" stroke-linecap="round" stroke-linejoin="round" stroke-miterlimit="10" d="M55.678 35.101l4.055 4.248 6.975-11.556M56.86 57.311H31.14V47.116h25.72"/><path fill="none" stroke="#474747" stroke-width="2" stroke-linecap="round" stroke-linejoin="round" stroke-miterlimit="10" d="M55.678 50.51l4.055 4.248 6.975-11.556M26.333 23.93h45.334"/></svg><svg width="118" height="118" viewBox="-10 -10 118 118" y="1182"><path clip-rule="evenodd" fill="none" stroke="#474747" stroke-width="2" stroke-linecap="round" stroke-linejoin="round" stroke-miterlimit="10" d="M49 1c26.51 0 48 21.49 48 48S75.51 97 49 97 1 75.51 1 49 22.49 1 49 1z"/><path d="M84.843 28.985h-8.572m4.286-3.913v8.571m-62.082 28.44h-7.682m3.841-3.507v7.682m60.863 10.319h-11.5m5.75-5.25v11.5" fill="none" stroke="#474747" stroke-width="2" stroke-linecap="round" stroke-linejoin="round" stroke-miterlimit="10"/><g fill="#474747"><path d="M38.53 16.48c-4.825 2.322-4.434 9.366.622 11.138 5.08 1.779 9.751-3.505 7.436-8.316a6.043 6.043 0 0 0-8.058-2.822zm1.335 9.104c-3.249-1.138-3.505-5.668-.4-7.162a3.886 3.886 0 0 1 5.181 1.815c1.491 3.097-1.526 6.487-4.781 5.347zm16.597-4.219c-1.76-3.658-7.113-3.373-8.46.473-1.338 3.82 2.623 7.425 6.316 5.647a4.59 4.59 0 0 0 2.144-6.12zm-3.078 4.178c-1.942.935-4.06-.958-3.348-2.993.708-2.022 3.539-2.212 4.484-.251a2.434 2.434 0 0 1-1.136 3.244zm10.705 3.175c1.137-3.247-2.229-6.311-5.368-4.8a3.894 3.894 0 0 0-1.822 5.201c1.505 3.126 6.046 2.865 7.19-.401zm-3.102-2.933c1.461.512 1.569 2.545.18 3.214a1.745 1.745 0 0 1-2.325-.814c-.677-1.406.695-2.907 2.145-2.4z"/><path d="M68.278 31.874c-1.28-2.659-5.181-2.477-6.169.345-.767 2.191.872 4.451 3.158 4.451 2.44 0 4.083-2.569 3.011-4.796zm-4.084 1.966a1.188 1.188 0 1 1 2.143-1.031 1.19 1.19 0 0 1-2.143 1.031zm1.755 3.348a2.565 2.565 0 0 0-1.2 3.426 2.564 2.564 0 0 0 3.426 1.2 2.566 2.566 0 1 0-2.226-4.626zm1.292 2.684c-.491.236-.849-.506-.357-.743.491-.236.848.506.357.743z"/><path d="M52.537 29.669c-6.785-1.989-13.74.775-16.535 6.573-2.09 5.661-.543 4.343-.007 4.601s0 1.365 1.949-3.665c2.335-4.844 8.217-7.133 13.987-5.441 7.043 2.065 11.386 9.318 8.931 15.696-.022.057-1.285 4.193-7.438 23.553-.221.696.818.036 1.544.036.457 0 .444.834.59.376 6.888-21.572 7.744-24.517 7.773-24.631 1.788-7.159-3.054-14.829-10.794-17.098z"/><path d="M54.828 70.06a1.077 1.077 0 0 0-1.338.729c-1.432 4.863-6.581 8.164-10.801 6.928-5.2-1.524-7.521-7.741-5.231-12.802 4.875-9.964.92-17.813.573-18.465-.728-1.556-1.098-3.176-1.097-4.814.233-5.138-.482-1.078-1.077-1.078s-.779-3.18-1.078 1.077c-.001 2.173.634 4.521 1.344 5.817.04.072 3.902 7.328-.608 16.53-1.359 2.759-1.567 6.624-.031 9.978 2.587 5.646 9.005 8.102 14.787 4.403 2.533-1.62 4.459-4.159 5.285-6.964a1.076 1.076 0 0 0-.728-1.339z"/></g><path fill="none" stroke="#474747" stroke-width="2" stroke-linecap="round" stroke-linejoin="round" stroke-miterlimit="10" d="M28.997 17.827h-11.5m5.75-5.25v11.5"/></svg><svg viewBox="-10 -10 417.963 417.963" width="532" height="532" y="1300"><path d="M363.044 5.362a7.239 7.239 0 0 0-3.64-4.52 7.241 7.241 0 0 0-9.786 3.013l-.014.027c0 .2-36.68 71.36-149.28 83.76a143.073 143.073 0 0 0-42.56 11.36 118.24 118.24 0 0 0-56.76 52 122.205 122.205 0 0 0-13.96 71.2 119.674 119.674 0 0 0 17.52 50.48c-20 14.36-83.44 64-89.16 117.28a7.24 7.24 0 0 0 14.4 1.52c5.24-47.56 64.76-93.68 83.32-107.04 22.28 27.36 55.64 42.8 91.44 45.32a154.602 154.602 0 0 0 70.44-12 161.564 161.564 0 0 0 62.08-46.12c42.92-52 63.36-139.4 25.96-266.28zm-245.76 260.16a104.068 104.068 0 0 1-7.28-13.6 105.598 105.598 0 0 1-8.4-31.28 107.682 107.682 0 0 1 12-62.8 103.998 103.998 0 0 1 50-45.72 128.797 128.797 0 0 1 38.32-10.04c74.32-8 118.04-41.08 140.6-65.08a306.725 306.725 0 0 1-66.8 117.48l-4.4-44.32a7.24 7.24 0 1 0-14.4 1.4l5.64 56.96c-33.64 34.12-80.4 68.4-145.28 97zm208.6-3.16v.04a147.086 147.086 0 0 1-56.48 42.16 140.01 140.01 0 0 1-64 10.72 114.44 114.44 0 0 1-79.4-37.88 545.198 545.198 0 0 0 69.04-36.68l63.56 12a7.24 7.24 0 0 0 2.6-14.24l-48.84-9.24a422.2 422.2 0 0 0 62.68-52.68 7.32 7.32 0 0 0 .96-1c50.48-52.56 71.96-104.56 80.92-136.56 24.72 105.44 5.8 178.8-31.04 223.36z" fill="#709314"/></svg><svg width="118" height="118" viewBox="-10 -10 118 118" y="1832"><path fill="none" stroke="#474747" stroke-width="2" stroke-linecap="round" stroke-linejoin="round" stroke-miterlimit="10" d="M32.375 47.679c.689 2.693 4.022 12.86 11.855 12.86M28.814 33.138c0-11.161 9.048-20.208 20.208-20.208S69.23 21.978 69.23 33.138"/><path clip-rule="evenodd" fill="none" stroke="#474747" stroke-width="2" stroke-linecap="round" stroke-linejoin="round" stroke-miterlimit="10" d="M49 1c26.51 0 48 21.49 48 48S75.51 97 49 97 1 75.51 1 49 22.49 1 49 1z"/><path fill="none" stroke="#474747" stroke-width="2" stroke-linecap="round" stroke-linejoin="round" stroke-miterlimit="10" d="M65.412 32.417l3.684.824a2.84 2.84 0 0 1 2.153 3.393l-1.988 8.892a2.84 2.84 0 0 1-3.393 2.153l-3.684-.824M32.831 32.417l-3.684.824a2.84 2.84 0 0 0-2.153 3.393l1.988 8.892a2.84 2.84 0 0 0 3.393 2.153l3.684-.824"/><path fill="none" stroke="#474747" stroke-width="2" stroke-linecap="round" stroke-linejoin="round" stroke-miterlimit="10" d="M65.114 33.797c0 8.887-6.008 21.241-16.092 21.241S32.93 42.684 32.93 33.797s7.205-16.092 16.092-16.092 16.092 7.205 16.092 16.092z"/><path fill="none" stroke="#474747" stroke-width="2" stroke-linecap="round" stroke-linejoin="round" stroke-miterlimit="10" d="M33.981 36.372s14.566 1.917 19.691-9.333c2.967 4.5 4.855 8 11.059 7M51.564 63.205h-4.667a2.675 2.675 0 0 1-2.667-2.667c0-1.467 1.2-2.667 2.667-2.667h4.667c1.467 0 2.667 1.2 2.667 2.667 0 1.467-1.2 2.667-2.667 2.667zm5.5-11l.632 9.762c6.728 1.198 13.896 4.674 21.465 23.966M41.373 52.205l-.632 9.762c-6.728 1.198-13.896 4.674-21.465 23.966"/></svg><svg width="118" height="118" viewBox="-10 -10 118 118" y="1950"><path clip-rule="evenodd" fill="none" stroke="#474747" stroke-width="2" stroke-linecap="round" stroke-linejoin="round" stroke-miterlimit="10" d="M49 1c26.51 0 48 21.49 48 48S75.51 97 49 97 1 75.51 1 49 22.49 1 49 1z"/><path clip-rule="evenodd" fill="none" stroke="#474747" stroke-width="2" stroke-linecap="round" stroke-linejoin="round" stroke-miterlimit="10" d="M79.87 78.934l-34.416-6.699s-15.842-4.218-18.822-5.978c-2.98-1.76-13.972-6.099-14.648-6.775-.676-.676-.612-5.617 5.374-4.857 3.648.463 8.718 2.378 10.746 3.505 6.643.738 8.095.171 11.846 2.516"/><path clip-rule="evenodd" fill="none" stroke="#474747" stroke-width="2" stroke-linecap="round" stroke-linejoin="round" stroke-miterlimit="10" d="M79.515 65.165c.991-2.363 4.991-5.131 3.991 1.753s-4.875 17.134-8.25 17.134c-2.25 0-1.555-4.734-.84-6.18m8.257-15.308l11.657 2.25M75.257 84.053l3.438 2.102M30.177 29.848h15.61v6.16h-15.61zm20.5 0h16.5v6.16h-16.5zm15 26.15v-19.99h-15m-4.89 0h-14.11v22.45"/><path clip-rule="evenodd" fill="none" stroke="#474747" stroke-width="2" stroke-linecap="round" stroke-linejoin="round" stroke-miterlimit="10" d="M45.787 29.178h4.89v27.21h-4.89zm-14.11 13.61h14.11v4.45h-14.11z"/><path clip-rule="evenodd" fill="none" stroke="#474747" stroke-width="2" stroke-linecap="round" stroke-linejoin="round" stroke-miterlimit="10" d="M50.677 42.788h15v4.45h-15zm-3.004-13.61c-5.833 0-11.083-5.25-8.583-8.167s8.583 2.917 8.583 8.167zm.559 0c5.833 0 11.083-5.25 8.583-8.167s-8.583 2.917-8.583 8.167zm35.275 37.74l-6.394-2.929c-1.014-5.408-6.431-7.599-9.919-7.599H43.426c-3.155 0-6.309 5.12 0 6.472 6.309 1.352 16.224-.451 20.28 4.056"/></svg></svg>