<svg xmlns="http://www.w3.org/2000/svg" viewBox="0 0 1100 1100"><style>.st0{fill:#acacac}</style><path class="st0" d="M817.1 1101c-5.5-.8-11-1.8-16.5-2.4-62.8-7.6-121.6-28.4-178.5-55C494.3 983.7 381.7 902.5 284 800.7c-73.4-76.4-136.8-160.3-188.2-253.1-34-61.5-61.6-125.7-79.1-194-9.6-37.8-14.3-76.2-11.5-115.3 3.1-42.9 18.6-80.7 48.4-111.8 29-30.3 58.7-60 88.5-89.6 18.8-18.6 41-31.3 67.6-34.8C242.5-2.3 271 7.7 295.6 29c11 9.4 21.3 19.7 31.4 30 37.4 37.8 74.6 75.7 112 113.6 16.9 17.1 30.1 36.5 35.9 60.2 8 32.6.2 62-18.9 88.8-5.3 7.4-11.4 14.3-17.8 20.9-25.2 25.9-50.7 51.6-76.9 78.1 3.9 8 8.1 17 12.7 25.7 21.1 39.4 47.9 74.8 76.9 108.6 52 60.7 110.2 114.5 177.8 157.6 14.8 9.4 30.8 17 47.3 26 1.4-1.9 2.4-3.6 3.8-5 24.6-24.9 49.2-49.8 73.8-74.6 16.4-16.5 35.1-29.2 58-34.6 39.9-9.4 73.7 2.9 102.1 31 27.8 27.6 55 55.7 82.4 83.7 20.9 21.3 42.1 42.3 62.3 64.2 17 18.4 27.3 40.4 29.7 65.7 2.6 27.4-4.8 52.4-20.8 74.3-9.6 13.1-21.1 24.9-32.3 36.7-20.3 21.4-41.1 42.3-61.5 63.6-32 33.6-71 52.6-117.3 56.7-1.1.1-2.1.6-3.2.9-11.9-.1-23.9-.1-35.9-.1zM65.5 251.9c.1 36.6 4.2 63.2 11.2 89.3 14.9 55.7 37.1 108.5 63.9 159.4 45 85.5 101.7 162.9 166.7 234.2 95 104.3 205.7 187.6 333 248.7 57.6 27.6 117 49.6 181.4 54.9 18.9 1.6 37.6.7 55.9-4.8 20.8-6.2 38-18 52.9-33.6 23-24.1 46.4-47.8 69.4-71.9 6.7-7 13.3-14.1 18.7-22 12.9-18.8 12.4-38.6-.8-57.3-2.8-3.9-5.9-7.6-9.3-11.1-45.2-45.8-90.5-91.5-135.8-137.2-3.2-3.2-6.6-6.2-10.2-8.8-16.7-12.2-34.3-12.8-51.6-1.6-5.3 3.4-10.2 7.6-14.6 12-27.8 27.8-55.4 55.9-83.1 83.8-19.1 19.2-40.8 21.7-63.9 7.7-6.5-4-13.4-7.3-20.1-11-11.2-6.2-22.8-11.7-33.6-18.6-89-57.3-163.1-130.5-227.3-214.2-26.8-35-49.9-72.3-66.5-113.4-9.2-22.6-4.9-41.4 12.4-58.2 28.2-27.5 56.1-55.1 83.8-83.1 5.3-5.4 9.8-11.8 13.5-18.5 7.2-13.2 7.3-27.1-.1-40.1-4.2-7.4-9.6-14.5-15.5-20.6C359.6 179 323.1 142 286.5 105c-9.5-9.6-19.1-19.1-29-28.2-11.7-10.7-25.4-16.6-41.6-13.6-12.9 2.4-23.3 9.5-32.4 18.7-27.2 27.5-54.6 54.8-81.5 82.5-7 7.2-13.4 15.3-18.9 23.8-14.3 22.2-17.8 47.3-17.6 63.7z"/></svg>