<svg class="svg-secure-v1" xmlns="http://www.w3.org/2000/svg" width="220" height="240" viewBox="0 0 22 24">
<style type="text/css">
	.svg-secure-v1 path{fill:#8c9e14;}
</style>
<path d="M1645.71,9362.23c-0.01-.65-0.03-1.26-0.03-1.85a0.861,0.861,0,0,0-.89-0.83,12.818,12.818,0,0,1-9.17-3.24,0.921,0.921,0,0,0-1.24,0,12.818,12.818,0,0,1-9.17,3.24,0.861,0.861,0,0,0-.89.83c0,0.59-.02,1.2-0.03,1.85-0.12,6.01-.29,14.24,10.42,17.71a0.866,0.866,0,0,0,.58,0C1646,9376.47,1645.83,9368.24,1645.71,9362.23ZM1635,9378.27c-9.18-3.13-9.04-9.97-8.92-16.01,0.01-.36.01-0.71,0.02-1.06a14.389,14.389,0,0,0,8.9-3.15,14.389,14.389,0,0,0,8.9,3.15c0.01,0.35.01,0.7,0.02,1.06C1644.04,9368.3,1644.18,9375.14,1635,9378.27Zm3.08-13.15-4.32,4.04-1.84-1.72a0.926,0.926,0,0,0-1.26,0,0.794,0.794,0,0,0,0,1.18l2.47,2.32a0.928,0.928,0,0,0,.63.25,0.972,0.972,0,0,0,.64-0.25l4.94-4.64a0.794,0.794,0,0,0,0-1.18A0.926,0.926,0,0,0,1638.08,9365.12Z" transform="translate(-1624.25 -9356.09)"/>
</svg>