<svg id="icons" xmlns="http://www.w3.org/2000/svg" viewBox="0 0 46.07 47.71"><defs><style>.cls-1{fill:none;stroke:#505050;stroke-miterlimit:10;stroke-width:2px;}</style></defs><title>sleep-ico3</title><path class="cls-1" d="M4.06,9.92h0a10,10,0,0,1,14.14,0L38,29.72a10,10,0,0,1,0,14.14h0a10,10,0,0,1-14.14,0L4.06,24.06A10,10,0,0,1,4.06,9.92Z" transform="translate(-0.14 -0.07)"/><path class="cls-1" d="M11.84,31.84c1.56,1.56,6-.35,9.9-4.24s5.8-8.34,4.24-9.9" transform="translate(-0.14 -0.07)"/><path class="cls-1" d="M34.46,31.84l0.71,0.71a5.92,5.92,0,0,1,0,8.44h0" transform="translate(-0.14 -0.07)"/><polyline class="cls-1" points="28.31 0.93 34.82 3.48 34.53 4.21 26.12 9.61 25.77 10.49 32.29 13.04"/><polyline class="cls-1" points="34.72 11 39.77 12.98 39.57 13.51 33.19 17.31 32.94 17.95 38 19.93"/><polyline class="cls-1" points="40.67 18.68 44.77 20.29 44.61 20.72 39.43 23.8 39.23 24.32 43.33 25.93"/></svg>