<svg xmlns="http://www.w3.org/2000/svg" xmlns:xlink="http://www.w3.org/1999/xlink" width="29" height="29" viewBox="0 0 29 29"><defs><path id="oldoa" d="M1346.36 70.63l-.02.01a.56.56 0 0 1-.78-.15.57.57 0 0 1 .15-.79l.02-.01a.57.57 0 0 1 .63.94zM1333.3 51.3h-.02a.56.56 0 0 1-.78-.14.57.57 0 0 1 .15-.79l.02-.01a.57.57 0 0 1 .63.94zm19.6 14.75a14.42 14.42 0 0 1-2.75 4.3l1.74 1.72a.57.57 0 0 1-.8.8l-9.97-9.96-2.93 2.8a.57.57 0 0 1-.35.15l-3.34.26-1.19 1.14a.56.56 0 0 1-.8-.02.57.57 0 0 1 .02-.8l1.2-1.14.42-3.31a.57.57 0 0 1 .17-.34l2.84-2.7-5.89-5.89a11.1 11.1 0 0 0 13.15 17.4.57.57 0 0 1 .5 1.02 12.26 12.26 0 0 1-15.83-4.57 12.23 12.23 0 0 1 1.38-14.65l-.8-.8a13.38 13.38 0 0 0 17.68 19.87.57.57 0 0 1 .66.92 14.41 14.41 0 0 1-8.5 2.75 14.4 14.4 0 0 1-10.25-4.25 14.4 14.4 0 0 1-3.15-15.8c.66-1.6 1.59-3.03 2.75-4.3l-1.73-1.73a.57.57 0 1 1 .8-.8l10.05 10.04 3.3-3.15c.23-.21.59-.2.8.02l.47.48 1.26-1.2-.87-.91a.57.57 0 0 1 .82-.79l3.9 4.08a.57.57 0 1 1-.83.79l-.85-.9-1.27 1.2.46.49c.22.22.2.58-.02.8l-3.21 3.06 5.8 5.8a11.1 11.1 0 0 0-13.14-17.39.57.57 0 0 1-.5-1.02 12.26 12.26 0 0 1 15.83 4.57 12.22 12.22 0 0 1-1.38 14.65l.8.8a13.38 13.38 0 0 0-17.68-19.87.57.57 0 0 1-.66-.92 14.41 14.41 0 0 1 8.5-2.75c3.87 0 7.51 1.5 10.25 4.25a14.4 14.4 0 0 1 3.15 15.8zm-9.57-9.72l.6.63 1.26-1.2-.6-.63zm-3.01 5.78l-2.36-2.36-2.71 2.58-.22 1.67.49-.48a.57.57 0 0 1 .8.8l-.57.57 1.8-.14zm.82-.78l2.82-2.7-2.3-2.4-2.88 2.74zm-3.64 1.8l-.02.02a.57.57 0 1 1-.8-.8l.02-.02a.57.57 0 0 1 .8.8z"/></defs><g><g transform="translate(-1325 -46)"><use fill="#fff" xlink:href="#oldoa"/></g></g></svg>