<svg xmlns="http://www.w3.org/2000/svg" xmlns:xlink="http://www.w3.org/1999/xlink" width="65" height="66" viewBox="0 0 65 66"><defs><path id="v758a" d="M997.27 2857.62l-26.23 26.23a7.99 7.99 0 0 1-11.29 0l-22.5-22.5a7.99 7.99 0 0 1 0-11.28l26.23-26.23a7.99 7.99 0 0 1 11.29 0l8.45 8.45 9.33-9.33a1.32 1.32 0 0 1 1.87 0l3.73 3.73c.51.51.51 1.35 0 1.86l-9.33 9.34 8.45 8.45a7.99 7.99 0 0 1 0 11.28zm-12.19-16l1.87 1.87 1.87-1.87-1.87-1.87zm2.8-10.27l1.87 1.87 5.6-5.6-1.87-1.86zm-6.53 6.54l1.87 1.86 4.66-4.66-1.86-1.87zm-3.73-3.74l1.86 1.87 1.87-1.87-1.87-1.86zm17.78 21.6a5.35 5.35 0 0 0 0-7.55l-4.72-4.71-2.8 2.8c-.51.51-1.35.51-1.86 0l-11.2-11.2a1.32 1.32 0 0 1 0-1.87l2.8-2.8-4.72-4.72a5.35 5.35 0 0 0-7.55 0l-26.23 26.24a5.34 5.34 0 0 0 0 7.55l22.5 22.5a5.35 5.35 0 0 0 7.55 0zm-6.58-1.07L976.5 2867c-.52.52-1.35.52-1.87 0l-20.53-20.53a1.32 1.32 0 0 1 0-1.86l12.32-12.32a1.32 1.32 0 0 1 1.87 0l20.53 20.53c.51.51.51 1.35 0 1.86zm-2.8-.93l-18.67-18.66-10.45 10.45 18.67 18.66zm-17.01-4.2l-.16.15-.03.04c-.47.45-1.07.88-1.74.9-.72.03-1.4-.33-1.9-.82a2.75 2.75 0 0 1-.85-1.62c-.06-.62.14-1.26.58-1.7.32-.33.67-.33.99 0 .28.28.38.6.07.91-.42.43-.24 1.04.15 1.42.54.54 1.12.5 1.74-.12l.16-.16c.5-.5.7-1.19.14-1.74l-1.13-1.13c-.27-.27-.23-.56.03-.82l2.64-2.22c.24-.22.42-.27.53-.16l2.35 2.35c.23.23 0 .6-.18.77-.18.18-.55.42-.78.19l-1.7-1.71-1.49 1.29.59.58c.54.55.83 1.12.87 1.74.03.61-.26 1.23-.88 1.85zm-.1 2.84c-.27.27-.78.37-1.07.08-.3-.3-.2-.8.07-1.07.28-.28.77-.38 1.07-.07.3.3.19.8-.08 1.06zm5.31 2.82l-.1.1c-.59.59-1.18.86-1.79.82a2.71 2.71 0 0 1-1.71-.88 2.74 2.74 0 0 1-.88-1.72c-.05-.6.22-1.2.8-1.8l.11-.1c.8-.8 1.63-1.02 2.48-.66-.3-.67-.1-1.36.59-2.04.4-.4.9-.72 1.49-.7.61.04 1.18.4 1.6.83.5.49.76 1 .81 1.53.05.53-.18 1.05-.68 1.56-.69.68-1.37.88-2.05.58.36.85.14 1.67-.67 2.48zm.31-5.19c-.5.51-.54.99-.1 1.42.43.44.9.4 1.41-.1.51-.52.55-.99.11-1.43-.44-.43-.9-.4-1.42.11zm-1.11 4.01c.63-.62.68-1.2.15-1.73-.54-.53-1.12-.49-1.74.14l-.17.17c-.66.65-.72 1.25-.18 1.78.52.53 1.12.47 1.77-.19zm-14.65 14.84a4.62 4.62 0 1 1-6.54-6.55 4.62 4.62 0 0 1 6.54 6.55zm-1.87-1.87a1.98 1.98 0 1 0-2.8-2.8 1.98 1.98 0 0 0 2.8 2.8zm17.64 5.51c-.52.51-1.35.51-1.87 0l-8.4-8.4a1.32 1.32 0 0 1 1.87-1.87l8.4 8.4c.51.52.51 1.36 0 1.87zm-12.13-12.13a1.32 1.32 0 1 1-1.87-1.88 1.32 1.32 0 0 1 1.87 1.88zm-3.74-3.73c-.51.5-1.35.5-1.86 0l-8.4-8.4a1.32 1.32 0 0 1 1.86-1.87l8.4 8.4c.52.51.52 1.35 0 1.87zm8.51 22.38l-8.49-3.82a1.34 1.34 0 0 1-.39-2.14l4.67-4.67a1.33 1.33 0 0 1 2.13.4l3.83 8.49c.49 1.08-.66 2.23-1.75 1.74zm-2.09-3.84l-1.6-3.57-1.97 1.96zm-12.39-17.05l-4.66 4.66c-.66.66-1.78.42-2.14-.39l-3.83-8.49c-.49-1.08.66-2.23 1.75-1.74l8.49 3.82c.4.18.65.56.73.97.07.42-.03.86-.34 1.17zm-3.22-.52l-3.57-1.6 1.61 3.57z"/></defs><g><g transform="translate(-935 -2821)"><use fill="#ededed" xlink:href="#v758a"/></g></g></svg>