<svg xmlns="http://www.w3.org/2000/svg" xmlns:xlink="http://www.w3.org/1999/xlink" width="27" height="27" viewBox="0 0 27 27"><defs><path id="ko8va" d="M1660.52 69l-.02.02a.52.52 0 0 1-.71-.14.52.52 0 0 1 .13-.72l.02-.01a.52.52 0 1 1 .58.86zm-11.95-17.66l-.01.01a.52.52 0 0 1-.58-.86h.02a.52.52 0 0 1 .57.85zm17.92 13.48a13.18 13.18 0 0 1-2.51 3.93l1.58 1.58a.52.52 0 0 1-.73.73l-1.94-1.94-4.85-4.84a9.47 9.47 0 0 1-8.75-.61 10.01 10.01 0 0 1-3.5-3.67.52.52 0 0 1 0-.5 10.01 10.01 0 0 1 3.5-3.67l.2-.11-2.77-2.77a10.13 10.13 0 0 0 12.01 15.9.52.52 0 1 1 .46.93 11.2 11.2 0 0 1-15.81-12.62 11.17 11.17 0 0 1 2.6-4.94l-.73-.73a12.23 12.23 0 0 0 16.16 18.16.52.52 0 0 1 .6.83 13.17 13.17 0 0 1-7.76 2.52c-3.54 0-6.87-1.38-9.37-3.88a13.16 13.16 0 0 1-2.87-14.44c.6-1.46 1.45-2.77 2.51-3.93l-1.58-1.58a.52.52 0 1 1 .73-.73l6.79 6.78a9.47 9.47 0 0 1 9.97 1.5.52.52 0 0 1-.67.78 8.53 8.53 0 0 0-8.5-1.48l.74.75a3.74 3.74 0 0 1 5.23 5.23l1.02 1.02c1.46-.79 2.7-2 3.55-3.52a.52.52 0 0 1 .9.5 10.01 10.01 0 0 1-3.5 3.67l-.19.11 2.77 2.77a10.14 10.14 0 0 0-12.01-15.9.52.52 0 0 1-.46-.93 11.2 11.2 0 0 1 14.46 4.17 11.1 11.1 0 0 1-1.26 13.39l.73.73a12.23 12.23 0 0 0-16.16-18.16.52.52 0 1 1-.6-.83 13.17 13.17 0 0 1 7.77-2.52c3.54 0 6.87 1.38 9.37 3.88a13.16 13.16 0 0 1 2.87 14.44zm-13.75-7.31l3.75 3.75a2.7 2.7 0 0 0-3.75-3.75zm-1.2 2.24a2.7 2.7 0 0 0 4.22 2.24l-3.75-3.75c-.3.43-.46.95-.46 1.51zm5.7 3.73l-.74-.75a3.74 3.74 0 0 1-5.23-5.23l-1.02-1.02a8.9 8.9 0 0 0-3.4 3.27 8.69 8.69 0 0 0 7.4 4.29c1.04 0 2.05-.2 3-.56zm4.3-4.85a.52.52 0 0 1-.74-.08v-.01a.52.52 0 0 1 .8-.65l.01.01c.18.23.14.55-.08.73z"/></defs><g><g transform="translate(-1641 -46)"><use fill="#fff" xlink:href="#ko8va"/></g></g></svg>