<?xml version="1.0" encoding="utf-8"?>
<!-- Generator: Adobe Illustrator 24.1.1, SVG Export Plug-In . SVG Version: 6.00 Build 0)  -->
<svg version="1.1" id="Layer_1" xmlns="http://www.w3.org/2000/svg" xmlns:xlink="http://www.w3.org/1999/xlink" x="0px" y="0px"
	 viewBox="0 0 18.7 24.7" style="enable-background:new 0 0 18.7 24.7;" xml:space="preserve">
<style type="text/css">
	.st0{fill:#F25C5C;}
	.st1{fill:#D13737;}
</style>
<path id="XMLID_63_" class="st0" d="M9.6,2.8c0.3,0.3,0.6,0.6,0.9,0.9c1,1,2,2.1,2.8,3.2c1,1.3,1.9,2.6,2.6,4.2
	c0.3,0.8,0.6,1.6,0.8,2.4c0.1,0.6,0.1,1.2,0,1.8c-0.2,1.1-0.5,2.2-1.2,3.2c-1.1,1.6-2.6,2.5-4.5,2.9C8,21.9,5.1,20.5,3.5,18
	c-0.5-0.9-0.9-2-1-3c-0.1-1.1,0.1-2.1,0.5-3.1c0.4-1.1,1-2.2,1.6-3.2c1.1-1.7,2.5-3.3,3.9-4.8C8.8,3.4,9.2,3.1,9.6,2.8z"/>
<path class="st1" d="M14,14.2c0.2,0.2-1.2,5.2-4.5,5.4c-2.6,0.2-4.7-2.5-4.5-2.8c0.2-0.3,2.1,1.6,4.5,1.2
	C12.4,17.5,13.8,14.1,14,14.2z"/>
</svg>
