<svg xmlns="http://www.w3.org/2000/svg" xmlns:xlink="http://www.w3.org/1999/xlink" width="21" height="24" viewBox="0 0 21 24"><defs><path id="8whea" d="M1651.36 448.15c.45.57.64 1.2.56 1.81a2.5 2.5 0 0 1-.96 1.63l-.73.57c-.36.26-.7.51-1 .79l-.01.02a3.8 3.8 0 0 1-3.04.88c-.1 0-.21-.03-.32-.04a12.34 12.34 0 0 1-4.24-1.84 23.7 23.7 0 0 1-7.1-7.07 21.57 21.57 0 0 1-3.04-6.83 8.78 8.78 0 0 1-.18-3.78c.2-.9.65-1.62 1.37-2.18l1.91-1.5.01-.01c.56-.42 1.19-.6 1.8-.53.6.08 1.16.4 1.58.94.3.34.57.7.83 1.04l.4.53 1.2 1.53c.93 1.17.76 2.53-.42 3.45l-.47.37c-.42.33-.85.67-1.3 1 .22.7.56 1.42 1.09 2.28a17.2 17.2 0 0 0 3.65 4.24l.47.33.36.25 1.77-1.38c.57-.44 1.2-.63 1.8-.56.63.08 1.18.42 1.6.98zm-1.07.83l-2.42-3.09h-.01a1.03 1.03 0 0 0-.68-.46c-.31-.03-.6.13-.8.29l-1.92 1.49c-.1.07-.39.3-.8.25a1.1 1.1 0 0 1-.48-.19c-.02 0-.04-.03-.06-.04l-.46-.32a6.31 6.31 0 0 1-.58-.41 18.32 18.32 0 0 1-3.94-4.57 10.95 10.95 0 0 1-1.3-2.83l-.01-.05c-.06-.3-.08-.72.4-1.1l.03-.02c.48-.33.93-.69 1.4-1.06l.49-.38c.6-.46.65-.95.19-1.54l-1.2-1.53-.42-.54c-.26-.36-.52-.68-.79-1l-.01-.02c-.14-.18-.37-.4-.69-.44-.25-.03-.53.06-.8.26l-1.92 1.49a2.3 2.3 0 0 0-.87 1.4c-.19.9-.14 1.89.17 3.19.5 2.12 1.42 4.16 2.87 6.41a22.35 22.35 0 0 0 6.68 6.67c.97.62 2.28 1.36 3.76 1.64.07.02.15.02.23.03.78.1 1.4-.08 1.98-.56.35-.32.72-.6 1.08-.87l.69-.54c.57-.46.64-.99.19-1.56z"/></defs><g><g transform="translate(-1631 -430)"><use fill="#bfadac" xlink:href="#8whea"/></g></g></svg>